<?xml version="1.0" encoding="utf-8"?>
<!DOCTYPE svg PUBLIC "-//W3C//DTD SVG 1.1//EN" "http://www.w3.org/Graphics/SVG/1.1/DTD/svg11.dtd">
<svg version="1.1" xmlns="http://www.w3.org/2000/svg" xmlns:xlink="http://www.w3.org/1999/xlink" width="500" height="500" viewBox="0 0 500 500" fill="none" stroke="black">
  <path d="M359.886057,175.86219L340.462815,172.170545L341.852473,164.943495L342.37514,162.943846L343.976231,159.865472L345.339188,158.330593L349.296217,154.565766L356.305097,155.808694L373.004137,158.976751L373.075801,158.988782L372.278449,161.163409L371.183691,162.71438L363.391585,167.282097L362.291334,168.294546L361.095946,170.224458L360.692913,171.626201ZM301.050148,449.879656L297.00442,450.532806L295.029817,450.60345L292.034676,449.834094L289.706421,448.545033L290.121441,447.16759L290.590687,443.271239L290.159371,441.113026L290.502599,438.41203L288.779692,437.002273L289.009729,435.835822L288.062385,433.932084L287.276796,431.042494L286.516368,429.664937L284.148597,427.354784L283.474279,426.205034L283.255196,424.413249L297.764259,423.405738L297.534502,428.219733L297.776732,430.816498ZM184.474253,365.477618L183.113476,372.991733L188.710044,374.063072L189.448378,375.106697L188.897489,378.29875L185.572193,377.662168L184.650235,382.794962L184.720821,385.422015L184.508875,386.948367L186.824683,387.172237L185.735407,392.942419L177.731624,391.441108L174.867513,390.58199L172.896297,390.191986L172.008394,387.937912L172.424938,383.685869L172.243913,378.390421L171.901791,375.356039L171.167069,371.715629L169.7403,368.72786L167.955869,366.246577L166.812952,363.995343L166.294115,361.977279L166.195974,359.962677L167.372718,359.662989L169.199175,361.189973L170.19095,362.577872L170.938515,364.522876L171.83028,365.303967L174.361871,365.409966L177.32321,364.059542L179.129857,362.572717L180.598888,362.637031L180.660975,363.443578L180.011042,364.817076L180.413209,365.779437L181.914807,366.044258ZM402.606718,164.564242L386.035833,161.537524L386.891037,157.055916L382.190517,156.158368L382.863911,152.598376L383.737336,150.603063L384.336887,147.90701L382.656728,146.942266L384.409791,144.297163L384.854908,141.970923L390.662443,143.075481L398.3845,144.542239L400.190279,135.218421L407.925593,136.693311ZM229.689461,420.017917L233.640011,440.274493L234.056256,443.403499L236.417581,454.730536L237.903589,459.415829L239.860036,465.951654L244.73279,481.258312L243.573814,480.731436L224.351629,477.052758L224.295413,477.342968L204.814287,473.620806L206.014689,467.459186L205.952223,466.499445L203.514695,465.822464L203.126787,466.483065L201.118016,468.004341L199.481702,465.659644L198.990563,460.380959L199.544942,459.421209L199.321774,458.390249L198.209473,458.254178L198.249528,456.871243L198.779046,455.719457L198.641396,453.578656L198.24063,453.155082L188.722528,451.316585L190.478483,442.301417L190.719018,442.34817L191.714691,437.193616L191.474192,437.147086L195.020417,418.787801L196.026515,414.120047L205.891898,416.010389L208.929555,416.453278L211.034293,416.556118L221.464633,418.541056ZM210.751157,129.904531L202.486144,122.163353L200.163087,119.737093L201.199252,118.637371L201.200792,116.861383L200.332724,115.508712L200.159132,114.211325L200.601854,113.079646L206.273192,106.924022L207.221667,106.203268L209.02207,105.805141L216.538103,106.27491L218.807649,106.963409L221.005469,108.477476L219.542269,111.081363L218.926102,113.40432L218.252659,119.872549L217.931508,121.34953L216.719015,123.714778L215.408275,125.130002L212.093958,128.102044ZM215.46348,244.392183L213.773289,253.283016L213.492853,254.074405L211.808429,262.856675L204.541356,261.457593L204.446216,261.886624L205.934612,253.925826L206.674038,250.643421L207.750148,245.028711L208.245015,243.016834ZM193.734865,163.083887L180.599893,160.558945L181.717141,159.492538L181.751954,157.674007L180.431585,156.778495L177.624415,155.319838L173.853304,152.265032L174.121518,144.451978L174.508015,130.244124L174.274024,129.66295L175.211813,128.4696L176.004241,126.415936L178.340006,122.432424L178.972489,121.803352L187.056964,129.534424L191.243886,133.390763L193.91964,135.465904L196.297809,137.715933L200.010465,142.50256L195.898979,145.59465L194.775676,146.84182L194.065821,149.273005L194.184489,159.977911ZM321.980953,271.174884L321.685448,269.784041L322.639099,264.934198L310.803182,262.698171L307.387753,261.98122L306.46971,261.635843L310.133097,254.984066L310.958332,253.102864L319.931969,254.754895L337.850396,258.231641L341.181892,258.721847ZM248.718041,242.194248L248.500471,243.27166L246.448518,243.557211L245.068129,244.605523L243.855164,244.412777L243.083718,245.382931L242.604712,246.75521L242.667642,248.755101L244.231827,250.694213L245.784129,252.955832L247.719427,254.085144L248.571281,255.096278L248.464639,256.698135L247.559922,257.106207L245.80665,257.286918L244.056872,257.724078L242.752505,257.681713L241.094479,257.0359L236.969836,254.44335L234.5633,254.168602L233.233955,254.6262L230.594311,255.027418L228.723128,255.814434L227.781869,253.758045L227.447542,250.8917L227.00777,250.168559L227.661389,246.741736L227.85772,245.715634L231.093782,246.302892L233.320984,246.070756L233.965767,244.768176L235.305103,245.209057L236.821611,243.57993L237.978722,243.703242L239.119653,243.123543L240.623382,241.189977L242.379739,240.874329L245.495617,241.274829L247.422788,240.778656L247.260906,241.646164ZM240.453999,180.142156L242.385398,181.687956L243.208,182.779761L244.077689,183.027214L245.647449,181.779884L246.101104,180.407107L248.792348,178.862309L249.351881,178.798742L248.915066,182.028332L248.720775,183.091732L247.868859,186.224924L246.655287,192.514144L240.14631,191.31859L228.70113,189.022212L231.141683,176.062251L232.125952,175.281316L233.128888,175.474384L232.93253,176.486878L237.312191,177.345219L237.668594,178.015485L237.254849,180.451018L237.624522,180.957041L239.967613,181.40788ZM183.564698,82.165844L181.449145,84.319123L180.276367,86.400494L179.420771,87.796875L178.211696,89.131574L169.708842,97.265911L165.927277,93.657533L164.082885,91.30527L162.699908,88.42591L161.473915,87.338327L157.461133,86.586704L158.754314,79.856697L161.756828,78.176706L164.376903,76.015001L166.185893,74.121308L169.556253,76.750065L171.773127,77.773527L174.533962,78.242568L177.265907,78.049539L178.663473,78.264406L181.208236,79.676928ZM246.130441,308.045114L245.197342,313.01678L244.97112,317.510348L244.076047,322.12134L243.781053,325.889405L243.386439,328.047431L241.477975,327.484119L238.212535,325.789399L232.834544,324.829777L232.859338,324.141734L236.351819,306.230509L236.455673,306.250525ZM166.195974,359.962677L166.294115,361.977279L166.812952,363.995343L167.955869,366.246577L169.7403,368.72786L171.167069,371.715629L171.901791,375.356039L172.243913,378.390421L172.424938,383.685869L172.008394,387.937912L172.896297,390.191986L174.867513,390.58199L177.731624,391.441108L185.735407,392.942419L188.855524,393.389102L190.410463,393.852001L193.539464,396.116817L195.044456,396.633464L194.975973,399.433834L195.513015,400.888693L196.728032,403.01054L197.4717,404.84964L197.572004,406.204274L196.026515,414.120047L195.020417,418.787801L195.388634,415.285614L194.740343,414.894198L180.186764,412.100542L176.932859,414.179834L176.693857,414.132426L177.222034,420.149423L169.773979,418.716765L170.651436,414.185878L155.937135,411.37239L156.70284,407.410853L156.120868,406.66277L118.368219,399.255999L117.812119,399.248385L98.516746,395.523441L105.860678,357.888564L144.731411,365.427895L163.457693,369.079415L165.260391,359.737603ZM232.736427,89.689395L227.391123,90.889691L220.750628,91.978009L217.559625,92.065929L214.088294,91.550156L211.16208,90.702713L206.949465,89.821675L201.66118,88.828822L199.900163,88.86344L197.408903,89.441864L196.33157,85.434898L197.766245,83.423751L198.528881,82.805472L199.515088,77.707723L196.623439,77.161748L198.196511,73.391212L199.633784,71.304608L203.041242,71.632561L214.622987,73.444451L220.85237,74.688565L221.159997,76.512759L221.866502,78.507562L222.745119,80.083808L224.924905,82.49076L230.056287,86.541171L231.599473,87.936923ZM259.397424,57.044862L256.472822,59.099472L254.732713,60.834309L251.495247,65.261882L249.216072,67.971333L247.96609,69.175224L244.523639,71.782204L241.871028,73.253741L238.271341,69.661132L235.101588,64.601332L233.261371,60.787572L231.413213,55.596959L224.49084,54.280563L223.755648,54.227444L215.349704,52.61622L215.28481,49.578242L213.346774,43.956032L211.775792,37.985105L211.161414,34.689469L211.351649,31.912084L208.590509,31.390341L169.505091,23.818265L169.526843,23.620379L170.331602,19.078064L173.051619,5.260172L209.221446,12.325536L209.025606,13.337704L211.813548,13.924081L211.959085,12.862097L222.137965,14.802979L221.918574,15.955702L231.307765,17.742163L231.530853,16.594481L241.399706,18.44798L244.960461,0L254.589239,1.804709L274.238994,5.552716L274.224358,5.628527L267.171104,42.198384L266.776931,44.846846L266.690771,47.044947L266.767112,54.754099L263.764968,55.281937L261.776059,55.922964ZM153.364463,213.025352L138.576144,210.132291L114.060394,205.3738L117.657873,186.778084L137.311864,190.434193L136.378825,195.210696L152.289214,198.245626L152.477159,199.170924L153.295083,199.635465L152.847753,201.94183L155.29089,202.410199ZM260.071617,238.529757L258.95118,236.182697L256.201706,235.601591L254.661617,235.90356L253.477556,236.895081L253.742597,238.056741L254.83921,238.380389L255.607447,239.556706L255.89799,243.383308L255.616216,244.012543L254.332559,244.83492L253.381168,244.646835L251.75312,243.694371L249.972542,243.204293L248.500471,243.27166L248.718041,242.194248L250.718027,231.819999L252.27518,223.70086L255.116791,224.460485L271.564856,228.361229L274.746258,229.082454L276.147679,229.617297L275.078587,231.218308L273.368121,232.545237L271.26995,233.772235L269.612437,235.449662L268.795772,237.080456L268.369218,238.632867L268.210741,241.7679L266.954648,243.782554L265.794498,244.960704L264.424144,244.638788L263.273624,242.640345L261.109852,240.482583ZM373.004137,158.976751L356.305097,155.808694L349.296217,154.565766L351.565948,152.40943L353.853463,149.479723L355.349239,146.492673L355.88934,144.628048L357.448309,136.718083L364.97331,138.192751L374.291687,139.939424L374.638412,141.072276L375.986427,142.790239L376.091113,143.596363L373.575735,156.717628ZM356.347197,194.297149L352.757145,213.020392L333.204032,209.275121L316.445466,206.067899L316.473085,205.926947L317.686814,200.076099L320.11385,187.396985ZM320.526923,410.837254L317.919309,407.659361L316.581563,405.042231L316.605379,402.73339L317.328032,398.722319L319.771516,385.961481L321.956122,387.433451L324.125763,389.81183L326.629363,390.7702L338.64506,393.075414L338.03033,396.278297L338.276707,398.252476L339.269634,400.762168L339.457931,402.460635L338.668186,406.085972L337.584707,407.976338L334.908724,410.395739L333.278627,410.987113L331.14559,411.021048L324.275504,409.71436L322.78415,409.705221ZM253.534305,424.542102L240.544519,422.118665L229.689461,420.017917L227.980602,411.917184L227.789811,410.66827L226.017752,402.800239L230.763844,401.983177L232.168849,401.951749L244.505731,404.31145L246.881908,404.978383L250.442817,407.986767L255.608897,410.253728L256.558474,411.257066L256.939257,413.457369L256.149572,416.980907L254.128317,422.499357ZM218.903574,187.122676L218.877041,187.208307L217.58178,186.803338L214.79216,185.37118L212.867295,184.149453L211.416251,183.623957L209.261755,183.261255L206.625449,183.248908L202.358038,184.126582L199.272153,184.123301L193.620404,183.37302L194.041189,180.787515L193.99026,179.349202L192.575777,173.773702L192.32007,171.837758L192.390658,170.273353L193.734865,163.083887L212.400276,166.669825L214.650102,166.418651L216.369394,165.346175L217.5888,168.472554L219.736646,175.371743L220.311198,177.641649L220.209812,180.60078ZM326.185774,246.382269L316.244833,244.504946L313.259032,244.623545L311.092103,244.537177L306.610362,243.691296L305.738066,240.864955L305.345882,237.157628L304.645739,234.87719L302.414917,232.469254L302.468323,232.261462L299.768926,229.598367L298.799014,227.294861L300.668798,227.89893L301.989648,228.699149L305.201223,231.31715L307.389092,232.666175L310.95911,233.770213L313.36327,233.752178L314.812861,233.514825L316.825569,232.798113L324.076405,228.768012L327.232949,228.05412L329.617065,228.05797L329.214833,230.581195L327.672649,238.441851ZM197.408903,89.441864L195.594551,89.593214L192.755152,89.24665L190.898061,88.617316L188.839404,87.451208L187.065547,85.91075L183.564698,82.165844L181.208236,79.676928L178.663473,78.264406L177.265907,78.049539L174.533962,78.242568L171.773127,77.773527L169.556253,76.750065L166.185893,74.121308L168.283024,72.263642L170.337607,70.941553L173.737473,69.51716L176.151801,68.966584L179.544755,68.763616L181.138379,68.961767L181.273238,68.228199L199.770685,71.12538L199.633784,71.304608L198.196511,73.391212L196.623439,77.161748L199.515088,77.707723L198.528881,82.805472L197.766245,83.423751L196.33157,85.434898ZM142.693961,87.380556L143.69203,88.318313L140.696262,90.668056L139.615243,92.041271L138.141842,95.367527L137.289381,99.744161L137.328054,103.048026L135.288829,102.266141L135.951336,99.414394L136.532496,95.120748L135.856926,93.861422L131.277741,92.814009L128.806677,92.835341L125.650885,93.625254L122.287055,82.808443L121.491727,81.787832L117.978709,80.987811L120.780759,66.543039L137.506855,82.424281L142.570917,87.487614ZM316.473085,205.926947L316.445466,206.067899L333.204032,209.275121L329.617065,228.05797L327.232949,228.05412L324.076405,228.768012L316.825569,232.798113L314.812861,233.514825L313.36327,233.752178L310.95911,233.770213L307.389092,232.666175L305.201223,231.31715L301.989648,228.699149L300.668798,227.89893L298.799014,227.294861L298.509869,226.299131L298.356912,220.235139L297.742265,216.880347L296.142575,212.201328L294.725399,207.089496L294.581902,204.437268L295.195797,201.89873L295.365115,201.93382L306.620611,204.015815ZM274.413895,108.979363L271.603332,105.881646L266.916186,102.267187L262.061418,97.924151L260.102428,95.458061L259.045066,93.335558L262.954513,92.638615L265.265865,92.30709L268.422092,91.354048L274.467637,90.805411L275.797858,90.455149L279.071189,88.707991L282.423908,85.877761L283.197345,85.379675L284.385416,87.560544L284.901201,89.263801L284.958975,90.91665L284.243103,93.401764L282.777156,95.326819L277.006487,99.869625L275.816249,101.869428L274.78447,107.68152ZM197.408903,89.441864L198.254055,91.878678L199.01984,94.885636L199.225736,96.546066L199.169072,98.880118L198.477015,101.732589L197.655955,103.643919L196.479089,105.535918L194.993761,107.279028L191.31727,110.590524L188.917318,107.079529L191.346851,105.640678L192.170241,104.592979L192.78291,102.785431L192.668496,101.534298L190.256215,97.451596L189.257059,96.630004L186.892108,96.240434L185.003295,96.933607L183.739648,96.932298L181.805099,96.017488L179.504279,95.541366L180.061056,92.69007L180.797981,91.107515L182.589404,88.676791L180.276367,86.400494L181.449145,84.319123L183.564698,82.165844L187.065547,85.91075L188.839404,87.451208L190.898061,88.617316L192.755152,89.24665L195.594551,89.593214ZM240.453999,180.142156L239.967613,181.40788L237.624522,180.957041L237.254849,180.451018L237.668594,178.015485L237.312191,177.345219L232.93253,176.486878L233.128888,175.474384L232.125952,175.281316L231.141683,176.062251L228.121757,172.841481L224.782037,169.074693L223.860045,169.805429L222.487084,170.026144L220.553454,167.796953L217.956035,166.10356L217.153941,164.787337L223.6747,160.18576L227.019069,156.149935L227.583164,154.68749L227.229363,153.744283L226.000696,152.105641L225.974158,150.535907L227.441412,149.24452L229.806846,152.629842L231.80189,154.374981L237.68042,157.836471L240.357419,159.839595L243.181975,161.661714L243.968299,161.98639L242.189779,171.523783L241.920867,172.56411ZM301.050148,449.879656L302.171838,455.970784L302.313833,458.021977L302.147553,461.331268L301.615138,464.281243L301.021847,466.139461L299.203153,470.051468L297.82726,472.165105L294.445534,476.368602L292.191271,479.566376L290.603606,482.090629L288.648218,480.79813L289.234416,482.720453L287.835115,481.810014L286.130801,480.271339L283.270109,477.175494L281.219786,475.282587L279.993934,472.940317L279.226022,468.427111L279.310855,467.305768L278.522459,463.472397L277.799561,462.013293L277.307778,460.268625L276.641916,459.570735L275.80291,457.625139L276.495641,457.079166L275.797892,453.287531L275.850006,451.817357L276.411555,447.463924L277.178141,444.737606L277.757263,441.645365L277.647273,439.765996L277.158547,437.917455L276.531956,437.020828L275.058344,436.093736L271.708163,434.56627L270.77998,433.87478L269.612975,432.330403L268.812274,429.54258L267.1156,427.135066L266.849205,425.549807L283.184235,424.417995L283.255196,424.413249L283.474279,426.205034L284.148597,427.354784L286.516368,429.664937L287.276796,431.042494L288.062385,433.932084L289.009729,435.835822L288.779692,437.002273L290.502599,438.41203L290.159371,441.113026L290.590687,443.271239L290.121441,447.16759L289.706421,448.545033L292.034676,449.834094L295.029817,450.60345L297.00442,450.532806ZM197.990926,216.758639L197.069499,221.505776L192.275627,220.584951L182.459306,218.68906L182.904592,217.098088L184.768038,207.491704L185.215717,204.700439L193.417999,210.684753L195.436029,212.502614L195.998277,213.73228L195.978697,215.416283L196.487367,216.305996ZM232.834544,324.829777L230.404761,337.398207L229.706637,343.395708L209.786681,339.566762L212.079526,327.666235L212.129937,325.373647L212.988314,320.863598L226.324102,323.428033L226.290271,324.038335L229.256442,324.130489ZM193.734865,163.083887L194.184489,159.977911L194.065821,149.273005L194.775676,146.84182L195.898979,145.59465L200.010465,142.50256L200.050797,142.556085L202.726754,145.828219L207.819897,152.64261L208.559006,154.232063L210.126258,156.517672L215.30298,163.306321L216.369394,165.346175L214.650102,166.418651L212.400276,166.669825ZM130.033692,130.175535L129.123094,132.187287L127.662707,136.662871L126.717188,140.778486L124.972279,149.713857L124.849343,149.68991L104.794996,145.737555L104.115211,149.239143L103.119672,148.534581L101.409791,148.014L99.033517,145.48247L97.277282,145.138551L96.695404,147.49629L95.293926,146.216175L95.727093,144.01002L76.248461,140.237131L79.898727,121.59965L89.507666,123.483466L90.622122,117.768891L95.48947,119.148686L101.973184,119.944539L104.819141,118.966807L108.737926,119.087061L110.906268,119.691661L114.420445,121.46455L116.952937,123.25251L119.180475,125.341553L119.888809,126.66551L121.357587,127.785598L123.997398,128.90386L125.587868,129.369766L128.432241,129.767955ZM262.954513,92.638615L259.045066,93.335558L256.096532,93.764468L255.794532,92.899123L251.77264,89.059765L245.386068,82.328934L242.452692,78.215185L240.833375,75.234493L239.771942,74.155301L241.871028,73.253741L244.523639,71.782204L247.96609,69.175224L249.216072,67.971333L261.615639,70.335404L261.075766,73.129478L259.810249,79.67986L255.673148,79.096519L255.872156,80.57628L256.454085,81.170942L256.01282,82.006207L257.136847,82.954121L256.914545,84.559531L258.79625,86.016841L259.541796,87.273739L260.44354,87.965565L260.83149,88.986346L260.157837,89.780848L261.364189,90.342245L261.249132,91.102255ZM188.917318,107.079529L186.366248,105.318065L184.565954,104.635761L182.824594,104.373848L180.36037,104.458412L178.115666,104.146948L175.561924,102.828159L169.708842,97.265911L178.211696,89.131574L179.420771,87.796875L180.276367,86.400494L182.589404,88.676791L180.797981,91.107515L180.061056,92.69007L179.504279,95.541366L181.805099,96.017488L183.739648,96.932298L185.003295,96.933607L186.892108,96.240434L189.257059,96.630004L190.256215,97.451596L192.668496,101.534298L192.78291,102.785431L192.170241,104.592979L191.346851,105.640678ZM402.44421,376.362048L400.658533,385.679281L394.481875,384.50287L391.269575,382.189241L387.218356,403.450947L377.262936,401.547293L375.822059,409.583461L380.730006,410.580267L400.001719,414.236005L398.226021,423.655588L396.912059,430.971812L396.491461,432.611953L341.762841,422.383972L337.051494,421.709847L333.953579,421.450434L330.447332,421.339244L326.907166,421.416843L323.067885,421.659591L322.441621,415.235339L321.415166,412.051071L320.526923,410.837254L322.78415,409.705221L324.275504,409.71436L331.14559,411.021048L333.278627,410.987113L334.908724,410.395739L337.584707,407.976338L338.668186,406.085972L339.457931,402.460635L339.269634,400.762168L338.276707,398.252476L338.03033,396.278297L338.64506,393.075414L326.629363,390.7702L324.125763,389.81183L321.956122,387.433451L319.771516,385.961481L316.659159,384.743851L314.102918,384.052795L305.464183,382.480297L306.605566,376.322355L306.777835,374.509113L306.499455,371.534745L305.309525,368.148863L303.665652,365.641551L304.132239,361.759009L304.926748,357.747642L314.802141,359.634376L324.776117,361.470981L326.908466,361.937025L344.84211,365.336095L346.301537,365.689812L363.46367,368.910683L392.75006,374.483573ZM276.185573,364.102115L274.163183,374.660896L274.173149,375.224951L270.200157,375.594833L268.062944,375.57107L261.76368,374.216548L257.484205,374.315104L257.560212,370.986808L257.838508,369.023462L258.869598,366.276893L260.595308,363.850474L264.259217,360.369167L265.580131,358.541622L266.623756,354.814432L266.922734,351.548294L267.408561,351.156514L268.998406,348.459437L269.618164,348.039143L272.267882,348.847518L271.729713,350.64237L270.575899,350.576283L269.637566,351.024337L271.347269,355.566238L272.596019,357.91236L274.578053,361.072529ZM162.450312,158.574878L158.4164,156.02842L157.370624,155.566032L153.804282,154.750575L154.674572,153.120007L157.779333,137.059867L160.38252,137.567429L162.706525,140.503018L164.13014,143.278324L164.68213,145.180564L165.722461,150.959587L165.268559,150.848694L163.632881,159.293525ZM229.706637,343.395708L228.836883,351.116034L228.122234,363.685843L227.497443,366.911123L225.710595,370.650037L223.869722,370.775334L222.544423,369.979361L219.360727,369.116089L218.348692,369.073266L217.000843,369.545228L215.882171,368.948206L215.619592,368.222259L214.555029,367.862043L212.38096,368.431849L211.055263,366.949877L211.208657,365.158585L212.21924,362.568464L209.499621,362.229572L207.413895,363.705742L205.155213,363.023824L206.452508,356.408388L207.842263,350.003134L208.229472,347.145953L209.672099,339.701676L209.786681,339.566762ZM192.897972,321.967534L190.222064,335.775208L190.198182,335.770538L170.608269,332.007609L173.9063,314.93595L175.800177,315.58575L177.022781,316.545495L178.813495,318.830845L180.988114,319.723735ZM301.745742,402.273814L297.764259,423.405738L283.255196,424.413249L283.184235,424.417995L282.973872,421.89732L283.318977,420.802503L285.334973,417.61484L286.493776,414.929526L287.065884,414.123634L290.049278,411.024768L290.936428,409.087104L291.165067,405.765884L291.502582,404.485754L292.828931,402.663278L294.627329,401.63092L296.753783,401.345164L296.739997,399.237152L297.099638,397.334834L298.32548,392.942972L299.439483,391.486875L299.810177,389.526707L299.262902,387.306448L299.557163,385.443656L298.490368,383.104786L298.616367,381.194737L305.464183,382.480297ZM320.526923,410.837254L321.415166,412.051071L322.441621,415.235339L323.067885,421.659591L310.255099,422.489466L297.764259,423.405738L301.745742,402.273814L310.700761,403.896934L311.458738,403.81007L314.667505,402.68172L316.605379,402.73339L316.581563,405.042231L317.919309,407.659361ZM169.526843,23.620379L169.505091,23.818265L162.942168,58.102268L162.039274,60.355613L162.192838,61.699319L163.50962,63.562835L165.449299,62.367562L166.879337,62.007793L168.577789,62.057925L181.934732,64.60607L181.273238,68.228199L181.138379,68.961767L179.544755,68.763616L176.151801,68.966584L173.737473,69.51716L170.337607,70.941553L168.283024,72.263642L166.185893,74.121308L164.376903,76.015001L161.756828,78.176706L158.754314,79.856697L157.237948,80.461615L149.818569,82.799745L146.890173,84.168444L145.662489,84.954547L142.693961,87.380556L142.570917,87.487614L137.506855,82.424281L138.222397,81.554434L140.11366,71.805382L141.638895,63.536792L142.975894,57.122562L142.85426,56.948453L144.573376,47.737264L146.41918,38.538168L150.031619,19.923889L162.57987,22.359561ZM202.445178,272.181647L213.163744,278.140828L215.526988,280.146263L216.530285,281.272829L214.579456,282.871347L211.13435,287.737909L204.16015,289.577475L197.258463,298.743328L179.291271,287.20678L181.212817,277.746683L181.356932,276.316669L184.954955,257.774517L185.164027,257.273746L186.622469,257.801409L188.277337,259.235581L188.767802,260.098748L192.068126,267.082163L193.536625,268.820541L194.781524,269.462193L198.584674,270.255705L199.776285,270.71146ZM290.937335,162.486505L291.169372,165.983344L290.806448,170.288897L290.787749,174.955659L291.124913,177.282237L291.596587,178.807676L293.106267,182.200069L292.931089,182.261472L286.576119,181.031267L280.885507,179.848239L264.827515,176.744676L261.422489,176.087131L263.13816,166.745105L265.021861,157.546008ZM345.679818,250.006416L343.194293,249.566184L327.42837,246.516497L326.185774,246.382269L327.672649,238.441851L329.214833,230.581195L329.617065,228.05797L332.706629,228.126287L337.130701,228.556255L349.395169,230.826812L351.699328,230.683261L351.621193,233.51308L350.699957,235.667615L347.902358,240.228622L347.230577,241.955822ZM209.786681,339.566762L209.672099,339.701676L206.862061,338.955089L196.619379,336.961275L190.222064,335.775208L192.897972,321.967534L201.216846,323.539485L202.673505,323.692589L209.640139,325.039103L212.129937,325.373647L212.079526,327.666235ZM236.351819,306.230509L232.859338,324.141734L232.834544,324.829777L229.256442,324.130489L226.290271,324.038335L226.324102,323.428033L212.988314,320.863598L216.00005,305.95566L216.90582,302.481203L218.888563,302.793514L231.268273,305.17665ZM236.597453,200.216742L233.635714,215.670508L230.194835,214.891139L229.267267,214.274954L227.460483,213.760393L226.346386,213.950304L224.813955,213.441452L221.851303,212.90513L218.569265,213.91359L216.637326,213.709673L214.111868,212.491381L216.239551,200.75803L217.157843,195.95875L222.04381,196.893292L227.054511,197.478932L229.134481,197.868906L228.964802,198.755788L231.595073,199.259226L231.961877,197.342154L236.967212,198.326554ZM270.759698,197.106903L269.911655,201.023968L270.070751,204.972771L270.495374,206.641563L269.862425,210.062588L271.137005,212.183088L271.507198,213.339754L270.54413,218.385303L269.49911,219.856753L267.985366,218.173345L261.821052,214.675008L262.809633,210.110766L261.13841,207.60887L257.708215,204.233267L256.265771,201.903394L254.300881,200.573959L251.526233,200.801568L249.383106,203.5431L246.815308,203.783915L246.725321,202.693919L244.016116,201.202865L244.453363,199.473989L246.081784,197.421904L246.655287,192.514144L261.263245,195.28638ZM145.969744,250.156953L126.320282,246.333923L106.807029,242.494875L109.573017,228.484585L111.865129,227.409099L113.910065,226.760724L115.812304,226.536006L118.713881,226.817369L120.536156,227.409958L126.501203,230.211095L127.834439,231.137731L141.020021,241.799305L146.703309,246.372603ZM296.142575,212.201328L297.742265,216.880347L298.356912,220.235139L298.509869,226.299131L298.799014,227.294861L299.768926,229.598367L302.468323,232.261462L302.414917,232.469254L301.608549,235.609605L300.833409,235.304394L299.982879,234.149021L299.332456,234.061851L296.816669,232.768686L295.251752,232.898321L291.544711,233.738522L288.404551,233.12006L285.208159,231.80483L282.67899,230.127699L278.37901,227.619541L276.758548,225.960054L274.633394,224.4916L269.49911,219.856753L270.54413,218.385303L271.507198,213.339754L271.137005,212.183088L271.956288,211.764294L272.153961,210.358632L274.776677,210.720997L276.045175,211.190638L277.975639,210.578225L279.929577,210.358041L282.498864,210.566562L283.169007,210.282761L284.342692,211.156461L284.922878,210.237631L288.235548,212.468567L290.976649,213.768264L291.318013,211.538061L293.162471,211.364973ZM270.341505,120.025948L269.856792,119.853575L250.64103,116.285754L246.732837,112.6223L245.450587,111.122103L244.809435,109.676506L244.589254,106.566013L248.777387,106.73919L256.103598,108.119711L257.287026,108.000991L259.524504,106.892269L261.445828,110.188371L261.999755,110.846496L268.596938,117.258598ZM169.041297,236.55088L168.303995,240.372778L167.823926,242.085709L167.310667,244.06459L166.156564,250.13093L166.209413,251.321929L167.771599,254.414972L145.969744,250.156953L146.703309,246.372603L141.020021,241.799305L143.641623,239.835033L148.693021,234.101655L149.740361,231.561207L152.45984,232.081897L153.108093,230.826113L154.600797,231.908587L157.794389,233.121636L157.76972,234.314214L158.350991,235.525595L160.198275,236.472963L162.992688,236.302193L164.239023,235.243645L164.637743,234.450008L165.788537,234.673986L165.566631,235.821604ZM185.164027,257.273746L184.954955,257.774517L167.771599,254.414972L166.209413,251.321929L166.156564,250.13093L167.310667,244.06459L167.823926,242.085709L170.288754,242.722558L177.119868,242.926039L184.664886,241.23277L188.472982,240.170236ZM261.821052,214.675008L267.985366,218.173345L269.49911,219.856753L274.633394,224.4916L276.758548,225.960054L278.37901,227.619541L277.519224,228.034786L276.147679,229.617297L274.746258,229.082454L271.564856,228.361229L255.116791,224.460485L252.27518,223.70086L253.830099,215.614645L246.020626,213.753185L244.025449,213.874267L244.070119,212.593277L244.706988,212.091222L247.038246,211.580276L248.78195,210.664371L249.606417,210.943459L253.126815,210.765159L257.433941,211.509465L258.729213,211.529858L259.178527,212.262547ZM208.366733,242.100242L208.245015,243.016834L207.750148,245.028711L206.674038,250.643421L205.934612,253.925826L204.446216,261.886624L203.388238,267.764273L202.445178,272.181647L199.776285,270.71146L198.584674,270.255705L194.781524,269.462193L193.536625,268.820541L192.068126,267.082163L188.767802,260.098748L188.277337,259.235581L186.622469,257.801409L185.164027,257.273746L188.472982,240.170236L188.476502,240.152908L197.570794,237.949373L198.256767,238.003084L199.759848,239.179836L200.848695,239.631594L204.71075,240.371726L207.365919,241.768685ZM231.241497,228.077438L229.448388,237.502307L212.911125,234.335401L209.794938,234.101978L210.347096,230.213761L210.563818,229.065963L211.487312,227.70633L214.203187,226.665305L215.679421,225.071265ZM205.155213,363.023824L202.495325,376.719477L200.429374,376.690994L198.261516,377.955716L197.345394,379.793885L196.296244,385.218477L195.356145,390.072377L195.591516,393.744712L195.044456,396.633464L193.539464,396.116817L190.410463,393.852001L188.855524,393.389102L185.735407,392.942419L186.824683,387.172237L184.508875,386.948367L184.720821,385.422015L184.650235,382.794962L185.572193,377.662168L188.897489,378.29875L189.448378,375.106697L188.710044,374.063072L183.113476,372.991733L184.474253,365.477618L185.066874,365.378368L187.101355,366.146747L188.677329,367.048018L189.486306,366.589371L190.470125,367.101952L190.765893,367.904899L192.089212,367.896149L192.303933,366.846134L191.852337,365.094336L192.300058,363.773737L191.781268,363.136421L192.499423,362.08015L194.414422,361.518642L195.617789,360.508764L197.052786,360.169979L198.79626,360.376935L197.611949,358.734271L198.039532,357.459947L200.306986,358.020663L202.794121,359.449616ZM188.917318,107.079529L191.31727,110.590524L189.727513,112.021785L186.001372,114.766479L182.773328,117.54467L180.255232,120.571887L178.972489,121.803352L161.455658,105.219724L161.563486,105.116214L169.708842,97.265911L175.561924,102.828159L178.115666,104.146948L180.36037,104.458412L182.824594,104.373848L184.565954,104.635761L186.366248,105.318065ZM270.341505,120.025948L272.307509,120.410004L271.406007,125.128578L271.418476,127.230233L272.481618,131.222404L273.20759,132.845945L276.125057,138.264965L276.271932,140.459804L268.637075,138.970244L267.524521,138.632542L266.606402,137.628852L264.892689,137.057976L263.652401,137.529922L262.340191,138.997171L260.497435,139.619878L258.217776,138.882101L258.81224,137.407591L259.255432,134.967051L258.967055,131.426607L257.695366,128.005246L253.916461,121.506783L251.995817,117.749508L250.64103,116.285754L269.856792,119.853575ZM283.197345,85.379675L282.423908,85.877761L279.071189,88.707991L275.797858,90.455149L274.467637,90.805411L268.422092,91.354048L265.265865,92.30709L262.954513,92.638615L261.249132,91.102255L261.364189,90.342245L260.157837,89.780848L260.83149,88.986346L260.44354,87.965565L259.541796,87.273739L258.79625,86.016841L256.914545,84.559531L257.136847,82.954121L256.01282,82.006207L256.454085,81.170942L255.872156,80.57628L255.673148,79.096519L259.810249,79.67986L261.075766,73.129478L262.783953,73.500568L262.447056,75.615206L262.750452,76.629826L263.517871,77.157631L267.434276,77.786285L271.614012,77.809257L276.38242,75.980788L278.240374,75.773652L281.370205,75.925646L281.264281,80.63289L281.691465,82.618274ZM399.048785,183.213793L379.506569,179.465054L380.833558,172.569463L381.763833,168.143127L383.104332,160.978354L386.035833,161.537524L402.606718,164.564242ZM270.427468,294.719153L272.640843,296.759836L275.194013,300.515787L277.020076,304.061018L265.780445,301.783067L263.690776,301.176661L260.632157,300.799018L258.641602,301.27331L257.482246,302.322011L257.018813,303.40427L256.306086,307.070061L255.451096,308.037712L251.805686,308.70847L249.90266,308.759862L246.130441,308.045114L236.455673,306.250525L240.088298,287.459897L242.228209,287.864219L247.980038,289.430488L252.866918,290.306971L260.889555,291.179759L264.408372,291.920402L267.400557,292.954042ZM185.215717,204.700439L184.768038,207.491704L182.904592,217.098088L182.459306,218.68906L178.000411,217.804583L177.10116,217.209863L175.193187,214.918981L173.373835,214.158719L172.285606,214.021061L170.236599,215.214714L166.532549,216.666194L164.1454,216.899942L162.901308,216.672097L160.030206,215.247919L155.70549,213.744161L153.342067,213.149096L153.364463,213.025352L155.29089,202.410199L152.847753,201.94183L153.295083,199.635465L152.477159,199.170924L152.289214,198.245626L136.378825,195.210696L137.311864,190.434193L156.896742,194.079954L159.245959,194.554961L163.352089,196.242642L165.096717,196.437829L172.693534,195.518189L174.741809,196.146543L176.47058,198.196922L176.975665,198.664499ZM289.234416,482.720453L288.524363,484.089729L288.73646,484.651238L286.574691,489.326916L265.905711,485.477583L262.893244,484.813166L244.73279,481.258312L239.860036,465.951654L237.903589,459.415829L236.417581,454.730536L234.056256,443.403499L236.589694,442.87391L239.530809,442.955857L242.488606,442.27682L245.291458,442.59801L246.109842,440.019114L247.532595,439.17244L247.901904,438.396181L248.05621,436.429137L247.78523,435.05923L248.191778,433.261407L249.135534,433.465995L252.781816,433.401077L253.534305,424.542102L258.684499,425.4765L263.160839,425.722646L266.849205,425.549807L267.1156,427.135066L268.812274,429.54258L269.612975,432.330403L270.77998,433.87478L271.708163,434.56627L275.058344,436.093736L276.531956,437.020828L277.158547,437.917455L277.647273,439.765996L277.757263,441.645365L277.178141,444.737606L276.411555,447.463924L275.850006,451.817357L275.797892,453.287531L276.495641,457.079166L275.80291,457.625139L276.641916,459.570735L277.307778,460.268625L277.799561,462.013293L278.522459,463.472397L279.310855,467.305768L279.226022,468.427111L279.993934,472.940317L281.219786,475.282587L283.270109,477.175494L286.130801,480.271339L287.835115,481.810014ZM248.720775,183.091732L248.915066,182.028332L249.351881,178.798742L250.715556,179.026556L251.54486,178.020586L251.764875,176.885511L253.263019,177.16853L254.438632,176.631772L254.385257,174.739207L261.422489,176.087131L264.827515,176.744676L261.263245,195.28638L246.655287,192.514144L247.868859,186.224924ZM233.635714,215.670508L232.982322,219.085572L231.241497,228.077438L215.679421,225.071265L217.802407,220.194434L217.619663,218.248755L216.949393,215.680702L216.637326,213.709673L218.569265,213.91359L221.851303,212.90513L224.813955,213.441452L226.346386,213.950304L227.460483,213.760393L229.267267,214.274954L230.194835,214.891139ZM352.484119,251.388069L341.181892,258.721847L337.850396,258.231641L319.931969,254.754895L310.958332,253.102864L311.248453,250.778036L310.597056,248.356395L309.501998,246.808329L307.503656,244.881865L306.610362,243.691296L311.092103,244.537177L313.259032,244.623545L316.244833,244.504946L326.185774,246.382269L327.42837,246.516497L343.194293,249.566184L345.679818,250.006416ZM218.877041,187.208307L217.157843,195.95875L216.239551,200.75803L214.111868,212.491381L211.726236,210.770504L210.468336,209.519295L210.661301,208.416892L210.412057,206.962185L209.052302,204.787314L207.023905,203.11848L205.821899,202.385887L204.710513,201.129547L202.577984,199.709855L200.121985,199.459297L198.504473,198.39543L196.779944,197.842374L192.49593,195.460792L189.660827,192.632788L188.712221,188.636559L191.983434,186.646791L193.457344,184.542158L193.620404,183.37302L199.272153,184.123301L202.358038,184.126582L206.625449,183.248908L209.261755,183.261255L211.416251,183.623957L212.867295,184.149453L214.79216,185.37118L217.58178,186.803338ZM200.050797,142.556085L200.010465,142.50256L196.297809,137.715933L193.91964,135.465904L191.243886,133.390763L187.056964,129.534424L178.972489,121.803352L180.255232,120.571887L182.773328,117.54467L186.001372,114.766479L189.727513,112.021785L191.31727,110.590524L193.421376,113.386266L198.878695,118.451567L200.163087,119.737093L202.486144,122.163353L210.751157,129.904531L210.717226,129.969479L210.153764,131.162937L209.302873,134.535024L208.117366,136.757322L204.470082,139.505029ZM153.804282,154.750575L157.370624,155.566032L158.4164,156.02842L162.450312,158.574878L162.030088,160.493155L162.634104,163.735497L162.219023,166.547204L154.880346,165.126377L154.455584,167.310769L156.864113,167.774825L156.416894,170.07939L158.825807,170.545501L158.372245,172.848032L160.898598,173.336446L160.427273,175.751536L155.468065,174.844885L145.82416,172.943809L121.264239,168.209149L124.837378,149.75155L129.800322,150.691714L130.06446,149.344207L129.500799,147.451923L128.865073,144.235069L128.588051,141.124775L131.238352,142.083687L148.472036,152.573176L151.944175,154.337801ZM210.347096,230.213761L209.794938,234.101978L209.686343,235.522266L208.366733,242.100242L207.365919,241.768685L204.71075,240.371726L200.848695,239.631594L199.759848,239.179836L198.256767,238.003084L197.570794,237.949373L188.476502,240.152908L190.36508,230.49983L191.038911,226.499799ZM243.987166,161.891335L243.968299,161.98639L243.181975,161.661714L240.357419,159.839595L237.68042,157.836471L231.80189,154.374981L229.806846,152.629842L227.441412,149.24452L224.941085,145.730602L217.673524,136.687316L216.31086,135.221612L210.717226,129.969479L210.751157,129.904531L212.093958,128.102044L215.408275,125.130002L216.719015,123.714778L217.931508,121.34953L218.252659,119.872549L218.926102,113.40432L219.542269,111.081363L221.005469,108.477476L222.882486,106.448656L224.839866,104.894029L228.217708,103.199463L229.937317,102.113323L231.485526,100.618908L232.600604,98.977424L233.572153,96.312941L233.773708,94.303572L233.528412,91.724674L232.783073,89.762428L236.555111,88.923735L238.356676,88.782791L240.906832,89.174585L242.171693,89.621787L245.997138,91.491525L244.789855,93.697351L244.628556,95.147886L244.589254,106.566013L244.809435,109.676506L245.450587,111.122103L246.732837,112.6223L250.64103,116.285754L251.995817,117.749508L253.916461,121.506783L257.695366,128.005246L258.967055,131.426607L259.255432,134.967051L258.81224,137.407591L258.217776,138.882101L256.943368,140.981844L254.554304,143.327984L249.152863,146.279254L247.60265,147.774634L246.912306,148.79835L246.135134,150.779595ZM241.871028,73.253741L239.771942,74.155301L237.772306,74.825454L234.817891,75.51112L230.869404,75.905729L228.102905,75.842498L224.441116,75.327535L220.839437,74.522685L221.014649,71.613673L221.792773,67.52011L221.993238,64.334448L221.790646,61.984503L220.777402,59.552999L220.00385,58.520279L216.683949,55.79683L216.016276,54.87555L215.349704,52.61622L223.755648,54.227444L224.49084,54.280563L231.413213,55.596959L233.261371,60.787572L235.101588,64.601332L238.271341,69.661132ZM400.190279,135.218421L398.3845,144.542239L390.662443,143.075481L391.783986,140.643102L392.331576,137.773667L391.99046,137.344816L385.275416,136.062192L384.161759,136.078455L383.302827,133.2801L383.389033,132.09865L369.008648,129.358206L358.87924,127.388366L360.596593,118.370021L380.682454,122.187967L389.771653,123.865561L391.273064,124.449248L394.536045,126.894122L397.788685,129.046595L401.154953,130.143048ZM253.534305,424.542102L252.781816,433.401077L249.135534,433.465995L248.191778,433.261407L247.78523,435.05923L248.05621,436.429137L247.901904,438.396181L247.532595,439.17244L246.109842,440.019114L245.291458,442.59801L242.488606,442.27682L239.530809,442.955857L236.589694,442.87391L234.056256,443.403499L233.640011,440.274493L229.689461,420.017917L240.544519,422.118665ZM322.831601,173.093131L320.11385,187.396985L317.686814,200.076099L316.473085,205.926947L306.620611,204.015815L295.365115,201.93382L296.753927,197.035252L297.112452,193.484297L296.830078,191.017919L295.588399,187.564701L293.106267,182.200069L291.596587,178.807676L291.124913,177.282237L290.787749,174.955659L290.806448,170.288897L291.169372,165.983344L290.937335,162.486505L290.934742,162.471707L298.615333,163.942055L300.693983,164.749893L301.74747,165.789483L302.712463,167.696402L303.468246,168.604499L305.49728,169.612443L322.602406,172.919854ZM142.85426,56.948453L142.975894,57.122562L141.638895,63.536792L140.11366,71.805382L138.222397,81.554434L137.506855,82.424281L120.780759,66.543039L123.364737,53.199367ZM253.552294,350.947267L252.065704,355.828325L251.132328,357.284904L246.5917,361.414877L245.914454,362.787125L244.164789,371.359255L243.369989,373.376306L243.469111,373.688165L242.77048,377.313799L241.684745,377.365937L240.692975,376.768146L240.86954,375.385974L242.702057,375.193998L241.647108,374.212593L240.610095,374.192715L239.79633,373.233987L238.288168,374.145363L237.427752,372.078867L234.545313,372.294336L232.654716,372.921085L231.578452,372.655746L229.2333,371.460524L225.710595,370.650037L227.497443,366.911123L228.122234,363.685843L228.836883,351.116034L229.706637,343.395708L233.563419,344.193925L235.855283,345.166347L240.71035,348.016812L243.758606,349.103692ZM252.27518,223.70086L244.088478,221.727013L232.982322,219.085572L233.635714,215.670508L235.666699,215.731451L237.672953,215.099825L242.987596,213.851601L244.070119,212.593277L244.025449,213.874267L246.020626,213.753185L253.830099,215.614645ZM285.923607,65.354073L285.752717,66.216032L285.64759,66.663167L284.701283,68.369331L282.711544,70.690318L281.641613,72.86105L281.370205,75.925646L278.240374,75.773652L276.38242,75.980788L271.614012,77.809257L267.434276,77.786285L267.95586,72.542439L267.691841,69.193176L268.646702,69.194281L269.186909,67.288043L269.863213,66.228816L269.963007,65.229249L268.773858,63.668983L268.586825,62.070068L267.122627,62.166447L266.754994,58.72482L265.791357,57.593439L262.444683,56.617999L259.397424,57.044862L261.776059,55.922964L263.764968,55.281937L266.767112,54.754099L266.690771,47.044947L266.776931,44.846846L267.171104,42.198384L274.224358,5.628527L293.704741,9.306896L286.845754,45.132675L284.437492,57.494185L284.274237,58.347014L284.175784,58.861325L286.140777,59.47079L285.544092,62.360808L285.923438,64.994613ZM319.084811,283.428375L320.179252,283.676135L348.282232,289.002757L361.193131,291.488937L377.782174,294.597622L370.680958,331.760066L350.988504,328.020415L338.285483,325.641008L326.633102,323.398917L311.66239,320.617251L308.451075,319.955449L295.087009,317.51713L288.874364,316.273757L286.604468,315.557027L283.472634,313.725195L281.810024,312.210067L280.018555,309.850892L277.090453,304.19782L277.020076,304.061018L275.194013,300.515787L272.640843,296.759836L270.427468,294.719153L270.844498,293.054475L271.777248,290.579572L272.914028,288.526512L279.608185,279.166002L281.81104,277.403911L283.349404,276.938958L284.925939,276.909493L288.3721,277.971789L290.048164,278.242752L292.820729,277.819592L295.739124,276.528198L294.940533,278.852567L306.64894,281.124673L311.113709,281.891714ZM295.195797,201.89873L294.581902,204.437268L294.725399,207.089496L296.142575,212.201328L293.162471,211.364973L291.318013,211.538061L290.976649,213.768264L288.235548,212.468567L284.922878,210.237631L284.342692,211.156461L283.169007,210.282761L282.498864,210.566562L279.929577,210.358041L277.975639,210.578225L276.045175,211.190638L274.776677,210.720997L272.153961,210.358632L271.956288,211.764294L271.137005,212.183088L269.862425,210.062588L270.495374,206.641563L270.070751,204.972771L269.911655,201.023968L270.759698,197.106903L289.44374,200.706862ZM206.949465,89.821675L209.110442,91.520092L210.274698,93.124204L211.296851,93.811259L210.325581,95.469991L209.374664,95.990385L207.597439,96.152651L206.155345,99.04702L204.50303,100.234316L203.930703,102.711783L204.945259,104.332547L204.738552,104.678293L206.273192,106.924022L200.601854,113.079646L200.159132,114.211325L200.332724,115.508712L201.200792,116.861383L201.199252,118.637371L200.163087,119.737093L198.878695,118.451567L193.421376,113.386266L191.31727,110.590524L194.993761,107.279028L196.479089,105.535918L197.655955,103.643919L198.477015,101.732589L199.169072,98.880118L199.225736,96.546066L199.01984,94.885636L198.254055,91.878678L197.408903,89.441864L199.900163,88.86344L201.66118,88.828822ZM266.239064,408.002807L265.479478,407.534931L264.498613,408.250165L263.59253,407.718548L260.681546,407.114421L258.143971,406.941134L256.217033,405.508476L255.565771,403.662913L255.862563,401.543338L255.596529,400.90498L254.216661,400.166388L252.611937,397.149591L252.231531,398.535537L250.910075,398.670691L250.026453,397.008504L248.432453,396.312945L248.216948,394.950076L249.599354,394.077361L249.208603,392.725255L247.68997,390.578794L247.992578,388.808607L246.831344,387.714871L246.820185,387.138786L245.754623,386.120814L244.23819,385.51731L243.318107,384.087864L244.089318,383.611588L245.51508,381.782475L244.855683,381.040542L244.845181,378.91933L243.256602,378.353968L242.77048,377.313799L243.469111,373.688165L243.369989,373.376306L245.821536,374.512298L247.066455,374.61536L257.484205,374.315104L257.851858,377.82734L258.581673,380.28308L259.398263,382.15406L261.154685,385.250045L264.443838,390.060639L265.220361,391.398006L266.811526,396.061962L267.13347,398.38008L266.900476,403.572146L266.543518,407.149963ZM324.185581,91.866831L316.784381,96.86618L313.05104,99.737144L310.557851,102.08127L297.629973,114.771882L295.768443,117.088625L294.973443,118.653378L294.113998,121.442453L293.625713,124.617473L292.011908,124.308075L291.981118,123.662382L289.791534,121.834483L285.900872,117.29779L284.062744,115.773867L280.83223,113.991275L277.253425,111.289281L274.413895,108.979363L274.78447,107.68152L275.816249,101.869428L277.006487,99.869625L282.777156,95.326819L284.243103,93.401764L284.958975,90.91665L284.901201,89.263801L284.385416,87.560544L283.197345,85.379675L284.356782,84.923407L286.410463,84.74166L303.674967,87.997242ZM407.925593,136.693311L400.190279,135.218421L401.154953,130.143048L397.788685,129.046595L394.536045,126.894122L391.273064,124.449248L389.771653,123.865561L380.682454,122.187967L360.596593,118.370021L358.87924,127.388366L358.13615,131.254129L357.448309,136.718083L355.88934,144.628048L355.349239,146.492673L353.853463,149.479723L351.565948,152.40943L349.296217,154.565766L345.339188,158.330593L343.976231,159.865472L342.37514,162.943846L341.852473,164.943495L340.462815,172.170545L336.133102,171.458806L332.398942,171.73914L325.666407,173.348176L322.831601,173.093131L322.602406,172.919854L305.49728,169.612443L303.468246,168.604499L302.712463,167.696402L301.74747,165.789483L300.693983,164.749893L298.615333,163.942055L290.934742,162.471707L289.394902,157.499421L288.699819,154.423462L288.487775,151.66119L288.514952,148.863743L289.065784,142.941789L290.396076,136.650934L291.884572,131.942259L292.937463,128.171741L293.625713,124.617473L294.113998,121.442453L294.973443,118.653378L295.768443,117.088625L297.629973,114.771882L310.557851,102.08127L313.05104,99.737144L316.784381,96.86618L324.185581,91.866831L335.794075,84.049723L337.759203,82.534142L339.385265,80.696899L340.947754,77.925496L341.578782,75.946611L343.315348,66.794949L343.027324,66.73741L344.840877,57.278004L381.362603,64.248672L420.336442,71.725281L413.190402,109.142504ZM292.011908,124.308075L286.960327,123.310413L285.931465,121.62718L284.807088,122.412274L283.347159,122.584115L272.307509,120.410004L270.341505,120.025948L268.596938,117.258598L261.999755,110.846496L261.445828,110.188371L259.524504,106.892269L265.812655,103.518332L266.916186,102.267187L271.603332,105.881646L274.413895,108.979363L277.253425,111.289281L280.83223,113.991275L284.062744,115.773867L285.900872,117.29779L289.791534,121.834483L291.981118,123.662382ZM266.916186,102.267187L265.812655,103.518332L259.524504,106.892269L257.287026,108.000991L256.103598,108.119711L248.777387,106.73919L244.589254,106.566013L244.628556,95.147886L244.789855,93.697351L245.997138,91.491525L249.60488,93.205076L252.923719,93.97403L256.096532,93.764468L259.045066,93.335558L260.102428,95.458061L262.061418,97.924151ZM311.66239,320.617251L308.12071,339.250941L307.552977,339.085201L291.748988,336.096753L291.353079,335.916806L282.177416,334.148424L282.065632,331.198883L281.372742,327.842468L281.319058,325.32777L283.472634,313.725195L286.604468,315.557027L288.874364,316.273757L295.087009,317.51713L308.451075,319.955449ZM160.427273,175.751536L159.736606,178.683993L158.808471,183.49447L158.6273,185.103684L157.296917,184.849459L156.408842,189.466362L157.614832,189.698242L156.896742,194.079954L137.311864,190.434193L117.657873,186.778084L117.603129,186.729841L121.175474,168.335243L121.264239,168.209149L145.82416,172.943809L155.468065,174.844885ZM321.980953,271.174884L321.327671,271.598738L319.084811,283.428375L311.113709,281.891714L306.64894,281.124673L294.940533,278.852567L295.739124,276.528198L297.880664,275.051727L299.981959,272.935316L301.145731,271.21514L306.46971,261.635843L307.387753,261.98122L310.803182,262.698171L322.639099,264.934198L321.685448,269.784041ZM295.739124,276.528198L292.820729,277.819592L290.048164,278.242752L288.3721,277.971789L284.925939,276.909493L283.349404,276.938958L281.81104,277.403911L279.608185,279.166002L272.914028,288.526512L271.777248,290.579572L270.844498,293.054475L270.427468,294.719153L267.400557,292.954042L264.408372,291.920402L260.889555,291.179759L252.866918,290.306971L247.980038,289.430488L242.228209,287.864219L240.088298,287.459897L242.045543,277.103024L242.453511,276.11888L246.909155,269.367079L249.440532,264.59376L251.512138,260.55859L253.818418,257.194653L257.314799,252.394918L258.149545,249.867665L258.477027,244.895642L259.698536,238.783981L260.071617,238.529757L261.109852,240.482583L263.273624,242.640345L264.424144,244.638788L265.794498,244.960704L266.954648,243.782554L268.210741,241.7679L268.369218,238.632867L268.795772,237.080456L269.612437,235.449662L271.26995,233.772235L273.368121,232.545237L275.078587,231.218308L276.147679,229.617297L277.789103,230.838569L278.946447,232.427661L279.843554,234.480785L287.109286,252.36337L294.527408,270.943358L295.749462,274.333818ZM181.356932,276.316669L181.212817,277.746683L179.291271,287.20678L197.258463,298.743328L197.022296,300.588282L195.478166,308.412081L192.897972,321.967534L180.988114,319.723735L178.813495,318.830845L177.022781,316.545495L175.800177,315.58575L173.9063,314.93595L177.802074,294.749007L168.885386,286.764586L159.804823,284.492947L162.760269,269.18603L167.671181,268.145692L168.959059,268.529235L170.008456,269.339652L173.541296,270.649775L179.935664,276.041701ZM174.274024,129.66295L172.846749,129.853048L168.083242,128.92756L169.560603,124.912105L169.368012,123.539784L168.822601,122.719185L167.389923,121.953853L163.083872,121.133549L161.727086,120.597728L161.144683,119.908064L160.935247,118.736829L161.470129,115.881936L161.395759,115.026451L160.612251,113.867948L156.522782,109.950476L161.455658,105.219724L178.972489,121.803352L178.340006,122.432424L176.004241,126.415936L175.211813,128.4696ZM368.778904,235.163314L367.688089,241.308794L367.640811,241.556155L352.484119,251.388069L345.679818,250.006416L347.230577,241.955822L347.902358,240.228622L350.699957,235.667615L351.621193,233.51308L351.699328,230.683261L354.862062,230.558509L356.27957,231.129676L358.355861,232.832317L359.85696,233.455336ZM283.472634,313.725195L281.319058,325.32777L281.372742,327.842468L282.065632,331.198883L282.177416,334.148424L272.122125,332.246734L272.405466,329.772467L272.20712,327.452344L271.789803,326.036822L271.431257,324.717896L270.086206,324.180884L269.230715,324.504605L267.312976,324.189435L266.087958,323.352312L264.003225,319.950412L263.240614,317.290982L264.568076,316.292715L266.010434,314.123491L267.093897,312.941221L269.313028,311.314231L270.306378,311.001904L271.841269,309.330117L272.340305,308.304176L277.090453,304.19782L280.018555,309.850892L281.810024,312.210067ZM149.081084,132.118344L149.918431,129.921293L150.246495,127.60326L149.059627,127.477352L145.308792,126.432546L145.357644,125.219323L144.921726,124.187671L145.042546,122.814479L147.688825,123.84017L149.343633,123.237905L149.886308,122.148097L150.267462,120.017325L152.301603,114.815034L154.006012,112.347165L156.522782,109.950476L160.612251,113.867948L161.395759,115.026451L161.470129,115.881936L160.935247,118.736829L161.144683,119.908064L161.727086,120.597728L163.083872,121.133549L167.389923,121.953853L168.822601,122.719185L169.368012,123.539784L169.560603,124.912105L168.083242,128.92756L172.846749,129.853048L174.274024,129.66295L174.508015,130.244124L174.121518,144.451978L173.853304,152.265032L170.540943,148.795182L167.507555,146.167166L166.990314,143.387724L166.758557,140.894886L165.994816,138.598318L164.277664,136.482743L162.456065,135.384176L159.92336,134.662871L157.830913,134.477699L154.285682,134.588683L151.619172,133.003224ZM343.027324,66.73741L343.315348,66.794949L341.578782,75.946611L340.947754,77.925496L339.385265,80.696899L337.759203,82.534142L335.794075,84.049723L324.185581,91.866831L303.674967,87.997242L304.1608,85.183031L303.772259,83.987572L302.849202,83.023936L303.897447,81.824132L304.095197,79.897917L305.415216,77.637823L305.716169,76.299451L305.757562,73.461086L302.392762,73.774478L299.776478,73.311389L297.77794,73.23954L295.480388,73.806987L291.492368,75.609229L288.898297,76.282566L285.673445,76.357173L283.478947,75.998465L281.370205,75.925646L281.641613,72.86105L282.711544,70.690318L284.701283,68.369331L285.64759,66.663167L285.752717,66.216032L285.923607,65.354073L285.923438,64.994613L285.544092,62.360808L286.140777,59.47079L284.175784,58.861325L284.274237,58.347014L284.437492,57.494185L286.845754,45.132675L293.704741,9.306896L293.813115,9.388931L313.022056,13.0196L342.302988,18.599726L340.55766,27.75807L349.446846,29.460817L343.2171,61.956804L343.556773,62.02123L342.665985,66.668905ZM216.369394,165.346175L215.30298,163.306321L210.126258,156.517672L208.559006,154.232063L207.819897,152.64261L202.726754,145.828219L200.050797,142.556085L204.470082,139.505029L208.117366,136.757322L209.302873,134.535024L210.153764,131.162937L210.717226,129.969479L216.31086,135.221612L217.673524,136.687316L224.941085,145.730602L227.441412,149.24452L225.974158,150.535907L226.000696,152.105641L227.229363,153.744283L227.583164,154.68749L227.019069,156.149935L223.6747,160.18576L217.153941,164.787337ZM289.065784,142.941789L288.514952,148.863743L288.487775,151.66119L288.699819,154.423462L289.394902,157.499421L290.934742,162.471707L290.937335,162.486505L265.021861,157.546008L268.637075,138.970244L276.271932,140.459804ZM423.655772,264.945768L367.816233,254.267854L366.655539,254.158714L362.259481,253.243376L352.484119,251.388069L367.640811,241.556155L367.688089,241.308794L382.158995,231.924778L384.554157,219.278353L391.895612,220.672139L390.179578,229.66694L399.810791,231.49837L399.838194,231.355011L408.679932,233.036871L409.09202,232.901544L419.395188,234.858792L419.32839,235.208351L428.976554,237.041466ZM153.364463,213.025352L153.342067,213.149096L149.740361,231.561207L148.693021,234.101655L143.641623,239.835033L141.020021,241.799305L127.834439,231.137731L126.501203,230.211095L120.536156,227.409958L118.713881,226.817369L115.812304,226.536006L113.910065,226.760724L111.865129,227.409099L109.573017,228.484585L112.27367,214.637822L113.971024,205.502911L114.060394,205.3738L138.576144,210.132291ZM372.306047,216.77073L352.757145,213.020392L356.347197,194.297149L375.881782,198.004017ZM250.718027,231.819999L242.084428,230.178747L244.088478,221.727013L252.27518,223.70086ZM169.708842,97.265911L161.563486,105.116214L150.40075,94.701405L143.69203,88.318313L142.693961,87.380556L145.662489,84.954547L146.890173,84.168444L149.818569,82.799745L157.237948,80.461615L158.754314,79.856697L157.461133,86.586704L161.473915,87.338327L162.699908,88.42591L164.082885,91.30527L165.927277,93.657533ZM245.80665,257.286918L244.59342,263.638776L249.440532,264.59376L246.909155,269.367079L242.453511,276.11888L242.045543,277.103024L240.088298,287.459897L231.832851,285.985401L220.649919,283.887192L218.1232,282.712135L216.530285,281.272829L215.526988,280.146263L213.163744,278.140828L202.445178,272.181647L203.388238,267.764273L204.446216,261.886624L204.541356,261.457593L211.808429,262.856675L231.641974,266.676373L231.585745,265.991645L230.666506,264.561846L228.70585,262.758436L228.263358,261.882882L226.573366,260.583997L226.157089,259.203341L227.085952,257.233199L228.723128,255.814434L230.594311,255.027418L233.233955,254.6262L234.5633,254.168602L236.969836,254.44335L241.094479,257.0359L242.752505,257.681713L244.056872,257.724078ZM188.712221,188.636559L189.660827,192.632788L192.49593,195.460792L196.779944,197.842374L198.504473,198.39543L200.121985,199.459297L202.577984,199.709855L204.710513,201.129547L205.821899,202.385887L203.748102,213.226554L198.856159,212.2877L197.990926,216.758639L196.487367,216.305996L195.978697,215.416283L195.998277,213.73228L195.436029,212.502614L193.417999,210.684753L185.215717,204.700439L176.975665,198.664499L176.47058,198.196922L177.946896,190.912797L177.968076,187.78998L177.570053,185.792892L176.974956,184.19415L175.771474,182.002925L174.780378,180.64097L173.265961,179.083882L170.505632,176.718181L171.521694,171.322674L172.716223,173.715119L174.205281,175.531898L175.698652,176.470122L178.175225,178.462124L181.497107,180.485995L185.307834,182.180631L186.298971,182.814904L187.59496,184.540211ZM383.104332,160.978354L381.763833,168.143127L380.833558,172.569463L379.506569,179.465054L379.346568,179.434028L376.559642,179.030891L359.886057,175.86219L360.692913,171.626201L361.095946,170.224458L362.291334,168.294546L363.391585,167.282097L371.183691,162.71438L372.278449,161.163409L373.075801,158.988782L382.983775,160.869963ZM375.881782,198.004017L356.347197,194.297149L359.886057,175.86219L376.559642,179.030891L379.346568,179.434028L377.299668,190.108732L377.089815,191.663702ZM231.141683,176.062251L228.70113,189.022212L218.903574,187.122676L220.209812,180.60078L220.311198,177.641649L219.736646,175.371743L217.5888,168.472554L216.369394,165.346175L217.153941,164.787337L217.956035,166.10356L220.553454,167.796953L222.487084,170.026144L223.860045,169.805429L224.782037,169.074693L228.121757,172.841481ZM242.084428,230.178747L250.718027,231.819999L248.718041,242.194248L247.260906,241.646164L247.422788,240.778656L245.495617,241.274829L242.379739,240.874329L240.623382,241.189977L239.119653,243.123543L237.978722,243.703242L236.821611,243.57993L235.305103,245.209057L233.965767,244.768176L233.320984,246.070756L231.093782,246.302892L227.85772,245.715634L229.448388,237.502307L231.241497,228.077438ZM399.048785,183.213793L391.895612,220.672139L384.554157,219.278353L378.037154,218.036694L372.306047,216.77073L375.881782,198.004017L377.089815,191.663702L377.299668,190.108732L379.346568,179.434028L379.506569,179.465054ZM173.373835,214.158719L169.041297,236.55088L165.566631,235.821604L165.788537,234.673986L164.637743,234.450008L164.239023,235.243645L162.992688,236.302193L160.198275,236.472963L158.350991,235.525595L157.76972,234.314214L157.794389,233.121636L154.600797,231.908587L153.108093,230.826113L152.45984,232.081897L149.740361,231.561207L153.342067,213.149096L155.70549,213.744161L160.030206,215.247919L162.901308,216.672097L164.1454,216.899942L166.532549,216.666194L170.236599,215.214714L172.285606,214.021061ZM267.434276,77.786285L263.517871,77.157631L262.750452,76.629826L262.447056,75.615206L262.783953,73.500568L261.075766,73.129478L261.615639,70.335404L249.216072,67.971333L251.495247,65.261882L254.732713,60.834309L256.472822,59.099472L259.397424,57.044862L262.444683,56.617999L265.791357,57.593439L266.754994,58.72482L267.122627,62.166447L268.586825,62.070068L268.773858,63.668983L269.963007,65.229249L269.863213,66.228816L269.186909,67.288043L268.646702,69.194281L267.691841,69.193176L267.95586,72.542439ZM170.505632,176.718181L173.265961,179.083882L174.780378,180.64097L175.771474,182.002925L176.974956,184.19415L177.570053,185.792892L177.968076,187.78998L177.946896,190.912797L176.47058,198.196922L174.741809,196.146543L172.693534,195.518189L165.096717,196.437829L163.352089,196.242642L159.245959,194.554961L156.896742,194.079954L157.614832,189.698242L156.408842,189.466362L157.296917,184.849459L158.6273,185.103684L158.808471,183.49447L159.736606,178.683993L160.427273,175.751536L160.898598,173.336446L158.372245,172.848032L158.825807,170.545501L156.416894,170.07939L156.864113,167.774825L154.455584,167.310769L154.880346,165.126377L162.219023,166.547204L162.634104,163.735497L163.505323,166.388041L164.954086,169.53306L166.871448,172.557254L168.749231,174.908658ZM293.106267,182.200069L295.588399,187.564701L296.830078,191.017919L297.112452,193.484297L296.753927,197.035252L295.365115,201.93382L295.195797,201.89873L289.44374,200.706862L270.759698,197.106903L261.263245,195.28638L264.827515,176.744676L280.885507,179.848239L286.576119,181.031267L292.931089,182.261472ZM384.554157,219.278353L382.158995,231.924778L367.688089,241.308794L368.778904,235.163314L372.306047,216.77073L378.037154,218.036694ZM173.853304,152.265032L177.624415,155.319838L180.431585,156.778495L181.751954,157.674007L181.717141,159.492538L180.599893,160.558945L177.365779,162.252295L175.645441,162.657077L173.736382,162.741952L171.494329,163.872013L170.136309,165.367632L169.783713,166.534249L169.910073,167.865584L171.521694,171.322674L170.505632,176.718181L168.749231,174.908658L166.871448,172.557254L164.954086,169.53306L163.505323,166.388041L162.634104,163.735497L162.030088,160.493155L162.450312,158.574878L163.632881,159.293525L165.268559,150.848694L165.722461,150.959587L164.68213,145.180564L164.13014,143.278324L162.706525,140.503018L160.38252,137.567429L157.830913,134.477699L159.92336,134.662871L162.456065,135.384176L164.277664,136.482743L165.994816,138.598318L166.758557,140.894886L166.990314,143.387724L167.507555,146.167166L170.540943,148.795182ZM298.616367,381.194737L298.490368,383.104786L299.557163,385.443656L299.262902,387.306448L299.810177,389.526707L299.439483,391.486875L298.32548,392.942972L297.099638,397.334834L296.739997,399.237152L296.753783,401.345164L294.627329,401.63092L292.828931,402.663278L291.502582,404.485754L291.165067,405.765884L290.936428,409.087104L290.049278,411.024768L287.065884,414.123634L286.493776,414.929526L285.334973,417.61484L283.318977,420.802503L282.973872,421.89732L283.184235,424.417995L266.849205,425.549807L266.813469,423.966497L267.230541,422.186066L268.680474,418.975726L269.897995,418.021642L271.692925,417.635774L272.630193,416.52715L272.854325,415.130084L272.436816,413.808308L271.147444,413.320842L269.303086,410.655383L269.108647,409.101408L269.531536,407.276437L270.791313,405.901256L272.740696,404.689284L276.109874,405.004L278.322705,405.012972L281.318992,404.165078L281.23749,403.805224L283.832408,402.448452L285.785609,400.752612L287.50221,398.097402L287.859489,398.235786L289.226185,396.546396L289.244955,395.238191L289.852757,393.789291L291.432221,391.699743L291.036325,390.671716L291.169255,388.306183L290.023627,385.436606L289.954339,384.472323L291.259382,382.292775L291.736082,379.896355ZM372.306047,216.77073L368.778904,235.163314L359.85696,233.455336L358.355861,232.832317L356.27957,231.129676L354.862062,230.558509L351.699328,230.683261L351.125579,224.145355L351.240943,221.026416L352.757145,213.020392ZM352.757145,213.020392L351.240943,221.026416L351.125579,224.145355L351.699328,230.683261L349.395169,230.826812L337.130701,228.556255L332.706629,228.126287L329.617065,228.05797L333.204032,209.275121ZM386.035833,161.537524L383.104332,160.978354L382.983775,160.869963L373.075801,158.988782L373.004137,158.976751L373.575735,156.717628L376.091113,143.596363L375.986427,142.790239L374.638412,141.072276L374.291687,139.939424L375.618016,138.668037L376.558853,138.622905L378.050813,139.222689L378.801888,139.911886L378.87983,140.82162L384.854908,141.970923L384.409791,144.297163L382.656728,146.942266L384.336887,147.90701L383.737336,150.603063L382.863911,152.598376L382.190517,156.158368L386.891037,157.055916ZM157.830913,134.477699L160.38252,137.567429L157.779333,137.059867L154.674572,153.120007L153.804282,154.750575L151.944175,154.337801L148.472036,152.573176L131.238352,142.083687L128.588051,141.124775L128.865073,144.235069L129.500799,147.451923L130.06446,149.344207L129.800322,150.691714L124.837378,149.75155L124.849343,149.68991L124.972279,149.713857L126.717188,140.778486L127.662707,136.662871L129.123094,132.187287L130.033692,130.175535L133.370315,130.303535L135.01961,131.063023L136.117102,131.999095L139.245558,132.173884L139.766345,131.619014L142.031672,132.231098L142.424588,133.575732L148.020978,134.037528L149.081084,132.118344L151.619172,133.003224L154.285682,134.588683ZM319.771516,385.961481L317.328032,398.722319L316.605379,402.73339L314.667505,402.68172L311.458738,403.81007L310.700761,403.896934L301.745742,402.273814L305.464183,382.480297L314.102918,384.052795L316.659159,384.743851ZM256.096532,93.764468L252.923719,93.97403L249.60488,93.205076L245.997138,91.491525L242.171693,89.621787L240.906832,89.174585L238.356676,88.782791L236.555111,88.923735L232.783073,89.762428L232.736427,89.689395L231.599473,87.936923L230.056287,86.541171L224.924905,82.49076L222.745119,80.083808L221.866502,78.507562L221.159997,76.512759L220.85237,74.688565L220.839437,74.522685L224.441116,75.327535L228.102905,75.842498L230.869404,75.905729L234.817891,75.51112L237.772306,74.825454L239.771942,74.155301L240.833375,75.234493L242.452692,78.215185L245.386068,82.328934L251.77264,89.059765L255.794532,92.899123ZM216.90582,302.481203L216.00005,305.95566L212.988314,320.863598L212.129937,325.373647L209.640139,325.039103L202.673505,323.692589L201.216846,323.539485L192.897972,321.967534L195.478166,308.412081L197.022296,300.588282L197.258463,298.743328L205.504592,300.213162ZM227.85772,245.715634L227.661389,246.741736L215.46348,244.392183L208.245015,243.016834L208.366733,242.100242L209.686343,235.522266L209.794938,234.101978L212.911125,234.335401L229.448388,237.502307ZM223.644162,391.232395L224.356207,394.478183L226.017752,402.800239L219.271377,403.865151L216.407429,403.908576L213.349783,403.643817L210.531819,403.088641L206.095246,401.572246L203.929988,400.510096L198.695004,397.48511L195.044456,396.633464L195.591516,393.744712L195.356145,390.072377L196.296244,385.218477L212.508038,388.356532L213.478994,388.698942L216.300526,390.337527L219.142077,391.251821L221.183512,391.597206ZM396.491461,432.611953L396.203365,434.731519L393.053132,451.455175L384.671026,495.80473L383.283028,496.321125L380.208589,494.377464L377.550333,493.00924L374.349473,491.935188L370.22264,491.61785L369.226056,491.347434L368.517876,490.550682L366.827973,489.584146L363.562798,488.47245L357.5513,487.129527L354.572035,486.828385L351.218811,487.077628L348.586336,489.586626L345.782117,491.241413L343.123686,492.503411L340.497934,492.897766L337.665472,493.018167L333.070571,492.015131L331.406177,492.548892L329.068767,492.557522L326.963671,492.134502L321.282594,490.484426L319.313745,490.303703L315.888543,490.859287L313.541326,491.843187L310.914386,493.437783L309.251487,495.924068L306.603047,498.619458L305.27167,499.680267L303.707434,500L301.779199,499.542327L301.110456,498.73324L300.452432,495.122573L300.84822,492.837384L300.777884,490.514183L300.080649,489.178921L298.799453,488.637475L296.929492,484.277044L296.134882,483.541327L295.941529,482.630334L293.43156,481.195837L291.757712,482.353923L290.603606,482.090629L292.191271,479.566376L294.445534,476.368602L297.82726,472.165105L299.203153,470.051468L301.021847,466.139461L301.615138,464.281243L302.147553,461.331268L302.313833,458.021977L302.171838,455.970784L301.050148,449.879656L297.776732,430.816498L297.534502,428.219733L297.764259,423.405738L310.255099,422.489466L323.067885,421.659591L326.907166,421.416843L330.447332,421.339244L333.953579,421.450434L337.051494,421.709847L341.762841,422.383972ZM303.674967,87.997242L286.410463,84.74166L284.356782,84.923407L283.197345,85.379675L281.691465,82.618274L281.264281,80.63289L281.370205,75.925646L283.478947,75.998465L285.673445,76.357173L288.898297,76.282566L291.492368,75.609229L295.480388,73.806987L297.77794,73.23954L299.776478,73.311389L302.392762,73.774478L305.757562,73.461086L305.716169,76.299451L305.415216,77.637823L304.095197,79.897917L303.897447,81.824132L302.849202,83.023936L303.772259,83.987572L304.1608,85.183031ZM190.198182,335.770538L184.474253,365.477618L181.914807,366.044258L180.413209,365.779437L180.011042,364.817076L180.660975,363.443578L180.598888,362.637031L179.129857,362.572717L177.32321,364.059542L174.361871,365.409966L171.83028,365.303967L170.938515,364.522876L170.19095,362.577872L169.199175,361.189973L167.372718,359.662989L166.195974,359.962677L165.260391,359.737603L170.608269,332.007609ZM221.005469,108.477476L218.807649,106.963409L216.538103,106.27491L209.02207,105.805141L207.221667,106.203268L206.273192,106.924022L204.738552,104.678293L204.945259,104.332547L203.930703,102.711783L204.50303,100.234316L206.155345,99.04702L207.597439,96.152651L209.374664,95.990385L210.325581,95.469991L211.296851,93.811259L210.274698,93.124204L209.110442,91.520092L206.949465,89.821675L211.16208,90.702713L214.088294,91.550156L217.559625,92.065929L220.750628,91.978009L227.391123,90.889691L232.736427,89.689395L232.783073,89.762428L233.528412,91.724674L233.773708,94.303572L233.572153,96.312941L232.600604,98.977424L231.485526,100.618908L229.937317,102.113323L228.217708,103.199463L224.839866,104.894029L222.882486,106.448656ZM268.637075,138.970244L265.021861,157.546008L262.648811,156.741156L260.43257,156.796193L257.537944,155.514914L255.475263,154.011363L253.911156,156.240869L248.329217,161.063881L246.611344,161.963411L243.987166,161.891335L246.135134,150.779595L246.912306,148.79835L247.60265,147.774634L249.152863,146.279254L254.554304,143.327984L256.943368,140.981844L258.217776,138.882101L260.497435,139.619878L262.340191,138.997171L263.652401,137.529922L264.892689,137.057976L266.606402,137.628852L267.524521,138.632542ZM209.672099,339.701676L208.229472,347.145953L207.842263,350.003134L206.452508,356.408388L205.155213,363.023824L202.794121,359.449616L200.306986,358.020663L198.039532,357.459947L197.611949,358.734271L198.79626,360.376935L197.052786,360.169979L195.617789,360.508764L194.414422,361.518642L192.499423,362.08015L191.781268,363.136421L192.300058,363.773737L191.852337,365.094336L192.303933,366.846134L192.089212,367.896149L190.765893,367.904899L190.470125,367.101952L189.486306,366.589371L188.677329,367.048018L187.101355,366.146747L185.066874,365.378368L184.474253,365.477618L190.198182,335.770538L190.222064,335.775208L196.619379,336.961275L206.862061,338.955089ZM257.484205,374.315104L247.066455,374.61536L245.821536,374.512298L243.369989,373.376306L244.164789,371.359255L245.914454,362.787125L246.5917,361.414877L251.132328,357.284904L252.065704,355.828325L253.552294,350.947267L261.944881,352.587529L263.282118,352.472326L266.922734,351.548294L266.623756,354.814432L265.580131,358.541622L264.259217,360.369167L260.595308,363.850474L258.869598,366.276893L257.838508,369.023462L257.560212,370.986808ZM214.111868,212.491381L216.637326,213.709673L216.949393,215.680702L217.619663,218.248755L217.802407,220.194434L215.679421,225.071265L214.203187,226.665305L211.487312,227.70633L210.563818,229.065963L210.347096,230.213761L191.038911,226.499799L192.157945,220.708335L192.275627,220.584951L197.069499,221.505776L197.990926,216.758639L198.856159,212.2877L203.748102,213.226554L205.821899,202.385887L207.023905,203.11848L209.052302,204.787314L210.412057,206.962185L210.661301,208.416892L210.468336,209.519295L211.726236,210.770504ZM226.017752,402.800239L227.789811,410.66827L227.980602,411.917184L229.689461,420.017917L221.464633,418.541056L211.034293,416.556118L208.929555,416.453278L205.891898,416.010389L196.026515,414.120047L197.572004,406.204274L197.4717,404.84964L196.728032,403.01054L195.513015,400.888693L194.975973,399.433834L195.044456,396.633464L198.695004,397.48511L203.929988,400.510096L206.095246,401.572246L210.531819,403.088641L213.349783,403.643817L216.407429,403.908576L219.271377,403.865151ZM402.44421,376.362048L392.75006,374.483573L363.46367,368.910683L346.301537,365.689812L344.84211,365.336095L326.908466,361.937025L324.776117,361.470981L314.802141,359.634376L304.926748,357.747642L304.132239,361.759009L303.665652,365.641551L302.307402,364.247208L300.60374,362.921749L297.489431,361.393861L291.62724,359.341963L289.586935,358.478637L286.507221,356.844893L278.395165,351.649603L275.470747,350.14194L272.267882,348.847518L272.261057,347.461604L270.741906,342.901823L271.030834,339.838219L270.678967,337.529472L271.879702,336.862215L272.465328,334.44113L272.122125,332.246734L282.177416,334.148424L291.353079,335.916806L291.748988,336.096753L307.552977,339.085201L308.12071,339.250941L311.66239,320.617251L326.633102,323.398917L338.285483,325.641008L350.988504,328.020415L370.680958,331.760066L370.686967,332.382451L378.18125,333.806373L378.497339,333.503997L409.515604,339.407683ZM272.267882,348.847518L269.618164,348.039143L268.998406,348.459437L267.408561,351.156514L266.922734,351.548294L263.282118,352.472326L261.944881,352.587529L253.552294,350.947267L243.758606,349.103692L240.71035,348.016812L235.855283,345.166347L233.563419,344.193925L229.706637,343.395708L230.404761,337.398207L232.834544,324.829777L238.212535,325.789399L241.477975,327.484119L243.386439,328.047431L254.226387,330.147729L256.570146,330.213216L271.789803,326.036822L272.20712,327.452344L272.405466,329.772467L272.122125,332.246734L272.465328,334.44113L271.879702,336.862215L270.678967,337.529472L271.030834,339.838219L270.741906,342.901823L272.261057,347.461604ZM240.088298,287.459897L236.455673,306.250525L236.351819,306.230509L231.268273,305.17665L218.888563,302.793514L216.90582,302.481203L205.504592,300.213162L197.258463,298.743328L204.16015,289.577475L211.13435,287.737909L214.579456,282.871347L216.530285,281.272829L218.1232,282.712135L220.649919,283.887192L231.832851,285.985401ZM193.734865,163.083887L192.390658,170.273353L192.32007,171.837758L192.575777,173.773702L193.99026,179.349202L194.041189,180.787515L193.620404,183.37302L193.457344,184.542158L191.983434,186.646791L188.712221,188.636559L187.59496,184.540211L186.298971,182.814904L185.307834,182.180631L181.497107,180.485995L178.175225,178.462124L175.698652,176.470122L174.205281,175.531898L172.716223,173.715119L171.521694,171.322674L169.910073,167.865584L169.783713,166.534249L170.136309,165.367632L171.494329,163.872013L173.736382,162.741952L175.645441,162.657077L177.365779,162.252295L180.599893,160.558945ZM242.084428,230.178747L231.241497,228.077438L232.982322,219.085572L244.088478,221.727013ZM302.414917,232.469254L304.645739,234.87719L305.345882,237.157628L305.738066,240.864955L306.610362,243.691296L307.503656,244.881865L309.501998,246.808329L310.597056,248.356395L311.248453,250.778036L310.958332,253.102864L310.133097,254.984066L306.46971,261.635843L301.145731,271.21514L299.981959,272.935316L297.880664,275.051727L295.739124,276.528198L295.749462,274.333818L294.527408,270.943358L287.109286,252.36337L279.843554,234.480785L278.946447,232.427661L277.789103,230.838569L276.147679,229.617297L277.519224,228.034786L278.37901,227.619541L282.67899,230.127699L285.208159,231.80483L288.404551,233.12006L291.544711,233.738522L295.251752,232.898321L296.816669,232.768686L299.332456,234.061851L299.982879,234.149021L300.833409,235.304394L301.608549,235.609605ZM182.459306,218.68906L192.275627,220.584951L192.157945,220.708335L191.038911,226.499799L190.36508,230.49983L188.476502,240.152908L188.472982,240.170236L184.664886,241.23277L177.119868,242.926039L170.288754,242.722558L167.823926,242.085709L168.303995,240.372778L169.041297,236.55088L173.373835,214.158719L175.193187,214.918981L177.10116,217.209863L178.000411,217.804583ZM215.349704,52.61622L216.016276,54.87555L216.683949,55.79683L220.00385,58.520279L220.777402,59.552999L221.790646,61.984503L221.993238,64.334448L221.792773,67.52011L221.014649,71.613673L220.839437,74.522685L220.85237,74.688565L214.622987,73.444451L203.041242,71.632561L199.633784,71.304608L199.770685,71.12538L181.273238,68.228199L181.934732,64.60607L168.577789,62.057925L166.879337,62.007793L165.449299,62.367562L163.50962,63.562835L162.192838,61.699319L162.039274,60.355613L162.942168,58.102268L169.505091,23.818265L208.590509,31.390341L211.351649,31.912084L211.161414,34.689469L211.775792,37.985105L213.346774,43.956032L215.28481,49.578242ZM277.020076,304.061018L277.090453,304.19782L272.340305,308.304176L271.841269,309.330117L270.306378,311.001904L269.313028,311.314231L267.093897,312.941221L266.010434,314.123491L264.568076,316.292715L263.240614,317.290982L264.003225,319.950412L266.087958,323.352312L267.312976,324.189435L269.230715,324.504605L270.086206,324.180884L271.431257,324.717896L271.789803,326.036822L256.570146,330.213216L254.226387,330.147729L243.386439,328.047431L243.781053,325.889405L244.076047,322.12134L244.97112,317.510348L245.197342,313.01678L246.130441,308.045114L249.90266,308.759862L251.805686,308.70847L255.451096,308.037712L256.306086,307.070061L257.018813,303.40427L257.482246,302.322011L258.641602,301.27331L260.632157,300.799018L263.690776,301.176661L265.780445,301.783067ZM246.655287,192.514144L246.081784,197.421904L244.453363,199.473989L244.016116,201.202865L243.445858,204.309682L238.584511,203.412202L239.08232,200.747315L236.597453,200.216742L236.967212,198.326554L231.961877,197.342154L231.595073,199.259226L228.964802,198.755788L229.134481,197.868906L227.054511,197.478932L222.04381,196.893292L217.157843,195.95875L218.877041,187.208307L218.903574,187.122676L228.70113,189.022212L240.14631,191.31859ZM242.77048,377.313799L243.256602,378.353968L244.845181,378.91933L244.855683,381.040542L245.51508,381.782475L244.089318,383.611588L243.318107,384.087864L244.23819,385.51731L245.754623,386.120814L246.820185,387.138786L246.831344,387.714871L247.992578,388.808607L247.68997,390.578794L249.208603,392.725255L249.599354,394.077361L248.216948,394.950076L248.432453,396.312945L250.026453,397.008504L250.910075,398.670691L252.231531,398.535537L252.611937,397.149591L254.216661,400.166388L255.596529,400.90498L255.862563,401.543338L255.565771,403.662913L256.217033,405.508476L258.143971,406.941134L260.681546,407.114421L263.59253,407.718548L264.498613,408.250165L265.479478,407.534931L266.239064,408.002807L267.606745,409.372863L267.295686,410.740604L267.8577,411.786235L268.908229,411.868287L269.303086,410.655383L271.147444,413.320842L272.436816,413.808308L272.854325,415.130084L272.630193,416.52715L271.692925,417.635774L269.897995,418.021642L268.680474,418.975726L267.230541,422.186066L266.813469,423.966497L266.849205,425.549807L263.160839,425.722646L258.684499,425.4765L253.534305,424.542102L254.128317,422.499357L256.149572,416.980907L256.939257,413.457369L256.558474,411.257066L255.608897,410.253728L250.442817,407.986767L246.881908,404.978383L244.505731,404.31145L232.168849,401.951749L230.763844,401.983177L226.017752,402.800239L224.356207,394.478183L223.644162,391.232395L222.137567,383.268639L221.983898,380.088051L222.204222,378.601324L223.221186,375.571524L223.992632,373.838026L225.710595,370.650037L229.2333,371.460524L231.578452,372.655746L232.654716,372.921085L234.545313,372.294336L237.427752,372.078867L238.288168,374.145363L239.79633,373.233987L240.610095,374.192715L241.647108,374.212593L242.702057,375.193998L240.86954,375.385974L240.692975,376.768146L241.684745,377.365937ZM292.011908,124.308075L293.625713,124.617473L292.937463,128.171741L291.884572,131.942259L290.396076,136.650934L289.065784,142.941789L276.271932,140.459804L276.125057,138.264965L273.20759,132.845945L272.481618,131.222404L271.418476,127.230233L271.406007,125.128578L272.307509,120.410004L283.347159,122.584115L284.807088,122.412274L285.931465,121.62718L286.960327,123.310413ZM225.710595,370.650037L223.992632,373.838026L223.221186,375.571524L222.204222,378.601324L221.983898,380.088051L222.137567,383.268639L223.644162,391.232395L221.183512,391.597206L219.142077,391.251821L216.300526,390.337527L213.478994,388.698942L212.508038,388.356532L196.296244,385.218477L197.345394,379.793885L198.261516,377.955716L200.429374,376.690994L202.495325,376.719477L205.155213,363.023824L207.413895,363.705742L209.499621,362.229572L212.21924,362.568464L211.208657,365.158585L211.055263,366.949877L212.38096,368.431849L214.555029,367.862043L215.619592,368.222259L215.882171,368.948206L217.000843,369.545228L218.348692,369.073266L219.360727,369.116089L222.544423,369.979361L223.869722,370.775334ZM303.665652,365.641551L305.309525,368.148863L306.499455,371.534745L306.777835,374.509113L306.605566,376.322355L305.464183,382.480297L298.616367,381.194737L291.736082,379.896355L291.703409,378.300441L290.988149,377.49628L289.475448,376.608212L287.930719,374.794857L287.002033,373.256544L285.197427,371.461807L281.701754,370.024123L279.443725,368.674936L278.474494,367.689703L276.185573,364.102115L274.578053,361.072529L272.596019,357.91236L271.347269,355.566238L269.637566,351.024337L270.575899,350.576283L271.729713,350.64237L272.267882,348.847518L275.470747,350.14194L278.395165,351.649603L286.507221,356.844893L289.586935,358.478637L291.62724,359.341963L297.489431,361.393861L300.60374,362.921749L302.307402,364.247208ZM260.071617,238.529757L259.698536,238.783981L258.477027,244.895642L258.149545,249.867665L257.314799,252.394918L253.818418,257.194653L251.512138,260.55859L249.440532,264.59376L244.59342,263.638776L245.80665,257.286918L247.559922,257.106207L248.464639,256.698135L248.571281,255.096278L247.719427,254.085144L245.784129,252.955832L244.231827,250.694213L242.667642,248.755101L242.604712,246.75521L243.083718,245.382931L243.855164,244.412777L245.068129,244.605523L246.448518,243.557211L248.500471,243.27166L249.972542,243.204293L251.75312,243.694371L253.381168,244.646835L254.332559,244.83492L255.616216,244.012543L255.89799,243.383308L255.607447,239.556706L254.83921,238.380389L253.742597,238.056741L253.477556,236.895081L254.661617,235.90356L256.201706,235.601591L258.95118,236.182697ZM227.661389,246.741736L227.00777,250.168559L227.447542,250.8917L227.781869,253.758045L228.723128,255.814434L227.085952,257.233199L226.157089,259.203341L226.573366,260.583997L228.263358,261.882882L228.70585,262.758436L230.666506,264.561846L231.585745,265.991645L231.641974,266.676373L211.808429,262.856675L213.492853,254.074405L213.773289,253.283016L215.46348,244.392183ZM261.821052,214.675008L259.178527,212.262547L258.729213,211.529858L257.433941,211.509465L253.126815,210.765159L249.606417,210.943459L248.78195,210.664371L247.038246,211.580276L244.706988,212.091222L244.070119,212.593277L242.987596,213.851601L237.672953,215.099825L235.666699,215.731451L233.635714,215.670508L236.597453,200.216742L239.08232,200.747315L238.584511,203.412202L243.445858,204.309682L244.016116,201.202865L246.725321,202.693919L246.815308,203.783915L249.383106,203.5431L251.526233,200.801568L254.300881,200.573959L256.265771,201.903394L257.708215,204.233267L261.13841,207.60887L262.809633,210.110766ZM291.736082,379.896355L291.259382,382.292775L289.954339,384.472323L290.023627,385.436606L291.169255,388.306183L291.036325,390.671716L291.432221,391.699743L289.852757,393.789291L289.244955,395.238191L289.226185,396.546396L287.859489,398.235786L287.50221,398.097402L285.785609,400.752612L283.832408,402.448452L281.23749,403.805224L281.318992,404.165078L278.322705,405.012972L276.109874,405.004L272.740696,404.689284L270.791313,405.901256L269.531536,407.276437L269.108647,409.101408L269.303086,410.655383L268.908229,411.868287L267.8577,411.786235L267.295686,410.740604L267.606745,409.372863L266.239064,408.002807L266.543518,407.149963L266.900476,403.572146L267.13347,398.38008L266.811526,396.061962L265.220361,391.398006L264.443838,390.060639L261.154685,385.250045L259.398263,382.15406L258.581673,380.28308L257.851858,377.82734L257.484205,374.315104L261.76368,374.216548L268.062944,375.57107L270.200157,375.594833L274.173149,375.224951L274.163183,374.660896L276.185573,364.102115L278.474494,367.689703L279.443725,368.674936L281.701754,370.024123L285.197427,371.461807L287.002033,373.256544L287.930719,374.794857L289.475448,376.608212L290.988149,377.49628L291.703409,378.300441ZM359.886057,175.86219L356.347197,194.297149L320.11385,187.396985L322.831601,173.093131L325.666407,173.348176L332.398942,171.73914L336.133102,171.458806L340.462815,172.170545ZM265.021861,157.546008L263.13816,166.745105L261.422489,176.087131L254.385257,174.739207L254.438632,176.631772L253.263019,177.16853L251.764875,176.885511L251.54486,178.020586L250.715556,179.026556L249.351881,178.798742L248.792348,178.862309L246.101104,180.407107L245.647449,181.779884L244.077689,183.027214L243.208,182.779761L242.385398,181.687956L240.453999,180.142156L241.920867,172.56411L242.189779,171.523783L243.968299,161.98639L243.987166,161.891335L246.611344,161.963411L248.329217,161.063881L253.911156,156.240869L255.475263,154.011363L257.537944,155.514914L260.43257,156.796193L262.648811,156.741156ZM137.328054,103.048026L137.964019,106.573416L140.19065,112.791206L140.453306,115.32218L139.97041,118.180791L138.385327,119.015882L135.958647,118.250085L124.850003,115.699122L123.300916,115.207921L124.01009,111.888048L123.719147,110.007724L122.847102,107.862296L122.674162,105.787L123.814667,100.928522L126.349818,101.118866L127.886142,100.844209L125.650885,93.625254L128.806677,92.835341L131.277741,92.814009L135.856926,93.861422L136.532496,95.120748L135.951336,99.414394L135.288829,102.266141ZM117.978709,80.987811L121.491727,81.787832L122.287055,82.808443L125.650885,93.625254L127.886142,100.844209L126.349818,101.118866L123.814667,100.928522L122.674162,105.787L122.847102,107.862296L123.719147,110.007724L124.01009,111.888048L123.300916,115.207921L124.850003,115.699122L135.958647,118.250085L138.385327,119.015882L139.97041,118.180791L139.30352,119.851833L138.051544,121.695905L132.827262,126.473741L131.201335,128.307838L130.033692,130.175535L128.432241,129.767955L125.587868,129.369766L123.997398,128.90386L121.357587,127.785598L119.888809,126.66551L119.180475,125.341553L116.952937,123.25251L114.420445,121.46455L110.906268,119.691661L108.737926,119.087061L104.819141,118.966807L101.973184,119.944539L95.48947,119.148686L90.622122,117.768891L90.585517,116.954597L89.405519,116.551944L89.774082,114.653979L87.593577,111.880168L86.103966,110.397392L85.012938,107.859704L84.905193,105.940793L85.143552,103.522839L86.39414,100.087312L87.881599,96.862403L88.039763,95.458473L87.665137,92.758084L86.62226,90.610978L85.623977,89.217932L83.956129,87.547132L83.651436,86.919963L81.525908,85.571913L80.614844,84.074699L78.272445,82.053814L77.392065,81.75663L75.716053,79.295329L74.806392,77.230835L74.592877,74.870131L74.88424,72.735062L74.162567,68.676508L73.063253,65.759502L71.023446,62.236614L88.088659,65.634837L86.767025,66.039127L86.548226,67.160433L87.651683,68.072355L88.749336,69.83341L90.173387,71.1136L90.538876,73.296382L91.206505,75.801058L91.855742,77.221062L90.534967,79.233945L90.911606,80.220483L92.821034,80.705981L93.302797,84.25419L94.6239,85.804218L97.007996,86.26773L97.048125,86.72193L95.264794,95.876891L94.322385,100.055783L99.794077,101.116905L98.807701,106.187335L102.953083,106.990629L104.45563,99.275511L104.823211,100.442156L105.980513,101.696705L107.911131,102.092999L110.74547,101.816607L112.213052,102.739451L112.939153,101.306936L110.834306,100.203367L108.014372,100.458182L108.928965,95.741125L105.27862,95.028695L105.964203,91.502088L115.510705,93.361892L116.187567,90.212575ZM423.655772,264.945768L418.376121,292.657122L379.560867,285.282775L377.782174,294.597622L361.193131,291.488937L348.282232,289.002757L320.179252,283.676135L319.084811,283.428375L321.327671,271.598738L321.980953,271.174884L341.181892,258.721847L352.484119,251.388069L362.259481,253.243376L366.655539,254.158714L367.816233,254.267854ZM149.081084,132.118344L148.020978,134.037528L142.424588,133.575732L142.031672,132.231098L139.766345,131.619014L139.245558,132.173884L136.117102,131.999095L135.01961,131.063023L133.370315,130.303535L130.033692,130.175535L131.201335,128.307838L132.827262,126.473741L138.051544,121.695905L139.30352,119.851833L139.97041,118.180791L140.453306,115.32218L140.19065,112.791206L137.964019,106.573416L137.328054,103.048026L137.289381,99.744161L138.141842,95.367527L139.615243,92.041271L140.696262,90.668056L143.69203,88.318313L150.40075,94.701405L161.563486,105.116214L161.455658,105.219724L156.522782,109.950476L154.006012,112.347165L152.301603,114.815034L150.267462,120.017325L149.886308,122.148097L149.343633,123.237905L147.688825,123.84017L145.042546,122.814479L144.921726,124.187671L145.357644,125.219323L145.308792,126.432546L149.059627,127.477352L150.246495,127.60326L149.918431,129.921293ZM390.662443,143.075481L384.854908,141.970923L378.87983,140.82162L378.801888,139.911886L378.050813,139.222689L376.558853,138.622905L375.618016,138.668037L374.291687,139.939424L364.97331,138.192751L357.448309,136.718083L358.13615,131.254129L358.87924,127.388366L369.008648,129.358206L383.389033,132.09865L383.302827,133.2801L384.161759,136.078455L385.275416,136.062192L391.99046,137.344816L392.331576,137.773667L391.783986,140.643102Z"></path>
</svg>
