<?xml version="1.0" encoding="utf-8"?>
<!DOCTYPE svg PUBLIC "-//W3C//DTD SVG 1.1//EN" "http://www.w3.org/Graphics/SVG/1.1/DTD/svg11.dtd">
<svg version="1.1" xmlns="http://www.w3.org/2000/svg" xmlns:xlink="http://www.w3.org/1999/xlink" width="500" height="500" viewBox="0 0 500 500" fill="none" stroke="black">
  <path d="M402.596567,164.617355L383.10145,160.898272L383.042822,161.007681L379.426906,179.449434L376.559642,179.030891L364.013347,176.64109L362.040167,176.151639L336.400126,171.268655L334.540206,171.226849L332.095097,171.54128L326.343815,172.969543L322.793578,172.962489L307.3609,169.976527L304.635568,169.316191L303.569302,168.667528L302.105189,166.213995L301.149674,164.995941L299.146076,164.060114L290.765805,162.453789L289.417701,158.10986L288.444408,153.758262L288.379712,148.675364L288.76273,144.746742L289.54642,140.4216L290.396076,136.650934L291.884572,131.942259L292.937463,128.171741L293.625713,124.617473L294.025227,121.866558L294.575389,119.652249L295.768443,117.088625L297.735993,114.631251L310.557851,102.08127L313.05104,99.737144L317.099885,96.638965L335.794075,84.049723L337.720359,82.574208L339.385265,80.696899L340.947754,77.925496L341.349383,75.902912L342.615064,71.38422L343.523934,66.920396L342.783497,66.612639L343.041864,66.661679L344.855479,57.201831L381.377148,64.172857L420.350953,71.649458L413.267095,108.797214L409.688313,127.462061ZM252.324029,223.71416L248.718041,242.194248L247.260906,241.646164L247.422788,240.778656L245.495617,241.274829L242.379739,240.874329L240.623382,241.189977L239.119653,243.123543L237.978722,243.703242L236.821611,243.57993L235.305103,245.209057L233.965767,244.768176L233.320984,246.070756L231.093782,246.302892L227.85772,245.715634L227.00777,250.168559L227.447542,250.8917L227.781869,253.758045L228.723128,255.814434L227.085952,257.233199L226.157089,259.203341L226.573366,260.583997L228.263358,261.882882L228.70585,262.758436L230.666506,264.561846L231.639377,266.686052L204.541356,261.457593L203.292313,268.179448L202.445178,272.181647L199.297287,270.516691L195.134458,269.567926L193.663023,268.916126L192.068126,267.082163L188.767802,260.098748L187.91659,258.791164L186.570066,257.770392L185.164027,257.273746L187.980093,242.640124L190.36508,230.49983L190.393129,229.84164L192.157945,220.708335L191.037095,220.378813L182.459306,218.68906L182.904592,217.098088L184.768038,207.491704L185.215717,204.700439L176.975665,198.664499L176.47058,198.196922L177.946896,190.912797L177.968076,187.78998L177.360103,185.155748L176.464516,183.196656L174.780378,180.64097L173.265961,179.083882L170.510622,176.69203L171.521694,171.322674L172.716223,173.715119L174.205281,175.531898L175.698652,176.470122L178.175225,178.462124L181.497107,180.485995L185.307834,182.180631L187.258984,183.84347L188.238865,186.679693L189.057963,190.592728L189.660827,192.632788L192.49593,195.460792L196.779944,197.842374L198.504473,198.39543L200.121985,199.459297L202.577984,199.709855L204.710513,201.129547L205.766111,202.344976L209.052302,204.787314L210.412057,206.962185L210.468336,209.519295L211.726236,210.770504L214.701706,212.865693L216.910036,213.802051L218.569265,213.91359L221.851303,212.90513L224.813955,213.441452L226.346386,213.950304L227.460483,213.760393L229.267267,214.274954L230.194835,214.891139L232.491969,215.537401L235.666699,215.731451L237.672953,215.099825L242.987596,213.851601L246.006514,213.761259L253.830099,215.614645ZM402.596567,164.617355L391.928956,220.497427L384.595085,219.095102L382.158995,231.924778L367.688089,241.308794L368.778904,235.163314L359.85696,233.455336L358.355861,232.832317L356.27957,231.129676L354.586593,230.529115L349.395169,230.826812L337.290103,228.576013L334.910354,228.255123L327.493963,228.065252L324.889106,228.536014L323.090344,229.252105L317.209437,232.553252L316.062399,233.092711L313.549845,233.733784L311.408588,233.783966L308.817052,233.24787L307.389092,232.666175L305.201223,231.31715L301.989648,228.699149L300.668798,227.89893L298.600578,227.254132L298.356912,220.235139L297.742265,216.880347L295.647028,210.751955L294.725399,207.089496L294.581902,204.437268L295.213486,201.83615L296.44859,197.520881L296.886872,195.233201L296.851492,192.222372L295.920378,188.695914L292.931089,182.261472L291.376924,178.738544L290.597857,174.995954L290.559991,171.141541L291.050017,164.987367L290.765805,162.453789L299.146076,164.060114L301.149674,164.995941L302.105189,166.213995L303.569302,168.667528L304.635568,169.316191L307.3609,169.976527L322.793578,172.962489L326.343815,172.969543L332.095097,171.54128L334.540206,171.226849L336.400126,171.268655L362.040167,176.151639L364.013347,176.64109L376.559642,179.030891L379.426906,179.449434L383.042822,161.007681L383.10145,160.898272ZM293.625713,124.617473L292.937463,128.171741L291.884572,131.942259L290.396076,136.650934L289.54642,140.4216L288.76273,144.746742L288.379712,148.675364L288.444408,153.758262L289.417701,158.10986L290.765805,162.453789L291.050017,164.987367L290.559991,171.141541L290.597857,174.995954L291.376924,178.738544L292.931089,182.261472L280.885507,179.848239L254.385257,174.739207L254.438632,176.631772L253.263019,177.16853L251.764875,176.885511L251.54486,178.020586L250.715556,179.026556L248.792348,178.862309L246.101104,180.407107L245.647449,181.779884L244.077689,183.027214L243.208,182.779761L242.385398,181.687956L240.596793,180.387777L239.967613,181.40788L237.624522,180.957041L237.254849,180.451018L237.668594,178.015485L237.312191,177.345219L232.93253,176.486878L233.128888,175.474384L232.125952,175.281316L231.141683,176.062251L228.121757,172.841481L224.782037,169.074693L223.860045,169.805429L222.487084,170.026144L220.553454,167.796953L217.956035,166.10356L217.153941,164.787337L216.369394,165.346175L215.227232,163.32357L212.997852,160.239699L210.028303,156.697558L208.073117,152.953039L197.319569,138.666008L194.481922,135.733741L191.044712,133.002977L179.091023,121.699011L180.609681,120.181961L182.773328,117.54467L186.610076,114.297287L190.371925,111.468796L195.734969,106.466792L197.655955,103.643919L198.477015,101.732589L199.169072,98.880118L199.225736,96.546066L199.01984,94.885636L198.254055,91.878678L197.408903,89.441864L200.1287,88.8547L201.66118,88.828822L210.62001,90.552832L214.911677,91.724516L217.559625,92.065929L221.275215,91.904521L226.881906,90.982124L232.667988,89.704281L235.573933,89.012246L238.103615,88.676021L240.18087,88.888531L242.287024,89.56517L249.14818,92.875336L252.102699,93.787466L254.20713,93.868244L259.12295,93.197597L260.571787,95.909605L262.715651,98.395886L267.012888,102.143302L270.655932,104.852301L273.97398,108.32255L275.313553,109.54738L280.449323,113.550439L283.888459,115.526154L285.377434,116.559203L288.346713,119.88385L289.791534,121.834483L291.981118,123.662382L292.011908,124.308075ZM277.090453,304.19782L272.340305,308.304176L271.841269,309.330117L270.306378,311.001904L269.313028,311.314231L267.093897,312.941221L266.010434,314.123491L264.568076,316.292715L263.207094,317.198782L264.003225,319.950412L266.087958,323.352312L267.312976,324.189435L269.230715,324.504605L270.086206,324.180884L271.431257,324.717896L272.20712,327.452344L272.405466,329.772467L272.106011,332.407759L272.465328,334.44113L271.879702,336.862215L270.678967,337.529472L271.030834,339.838219L270.741906,342.901823L272.261057,347.461604L272.269698,348.800773L269.618164,348.039143L268.998406,348.459437L267.408561,351.156514L266.650833,351.653123L263.282118,352.472326L261.944881,352.587529L243.578437,349.048164L241.013125,348.173529L235.752936,345.133095L232.318759,343.888166L229.61001,343.377492L209.718097,339.553517L206.708176,338.857829L190.228325,335.70185L188.748947,335.512428L170.608269,332.007609L177.802074,294.749007L168.885386,286.764586L159.804823,284.492947L162.760269,269.18603L167.671181,268.145692L168.959059,268.529235L170.008456,269.339652L173.541296,270.649775L179.935664,276.041701L181.356932,276.316669L184.947991,257.81095L185.164027,257.273746L186.570066,257.770392L187.91659,258.791164L188.767802,260.098748L192.068126,267.082163L193.663023,268.916126L195.134458,269.567926L199.297287,270.516691L202.445178,272.181647L203.292313,268.179448L204.541356,261.457593L231.639377,266.686052L230.666506,264.561846L228.70585,262.758436L228.263358,261.882882L226.573366,260.583997L226.157089,259.203341L227.085952,257.233199L228.723128,255.814434L227.781869,253.758045L227.447542,250.8917L227.00777,250.168559L227.85772,245.715634L231.093782,246.302892L233.320984,246.070756L233.965767,244.768176L235.305103,245.209057L236.821611,243.57993L237.978722,243.703242L239.119653,243.123543L240.623382,241.189977L242.379739,240.874329L245.495617,241.274829L247.422788,240.778656L247.260906,241.646164L248.718041,242.194248L252.324029,223.71416L274.28352,228.924274L276.132211,229.642548L275.078587,231.218308L273.368121,232.545237L271.26995,233.772235L269.612437,235.449662L268.795772,237.080456L268.369218,238.632867L268.210741,241.7679L266.954648,243.782554L265.794498,244.960704L264.424144,244.638788L263.273624,242.640345L261.109852,240.482583L259.698536,238.783981L258.477027,244.895642L258.149545,249.867665L257.080944,252.732065L252.076998,259.580799L251.323594,260.856011L246.692011,269.565616L242.379058,276.082202L241.980479,276.955249L237.37066,301.103574L236.365308,306.161329L249.90266,308.759862L250.814527,308.812754L255.370697,307.875606L256.399418,306.626546L256.966032,303.696515L257.636128,302.146151L258.864347,301.167389L260.315521,300.91151L263.408914,301.247333L265.370724,301.788572L268.314852,302.302754L277.005361,304.032412ZM229.61001,343.377492L228.822641,349.878223L228.008876,363.801151L227.631682,366.07542L227.029147,368.129631L223.634889,374.319407L222.130702,378.401973L221.85617,381.163378L222.042561,383.731648L226.279857,404.64172L228.083156,413.152521L233.430054,440.233308L236.229558,453.97353L244.708532,481.253554L243.531354,480.72339L224.351629,477.052758L224.295413,477.342968L204.814287,473.620806L205.947452,467.804311L205.952223,466.499445L203.514695,465.822464L203.126787,466.483065L201.118016,468.004341L199.481702,465.659644L198.990563,460.380959L199.544942,459.421209L199.321774,458.390249L198.209473,458.254178L198.249528,456.871243L198.779046,455.719457L198.641396,453.578656L198.24063,453.155082L188.722528,451.316585L190.478483,442.301417L190.719018,442.34817L191.714691,437.193616L191.474192,437.147086L195.020417,418.787801L195.388634,415.285614L194.740343,414.894198L180.186764,412.100542L176.932859,414.179834L176.693857,414.132426L177.222034,420.149423L169.773979,418.716765L170.651436,414.185878L155.937135,411.37239L156.70284,407.410853L156.120868,406.66277L118.368219,399.255999L117.812119,399.248385L98.516746,395.523441L105.860678,357.888564L144.731411,365.427895L163.457693,369.079415L170.608269,332.007609L188.748947,335.512428L190.228325,335.70185L206.708176,338.857829L209.718097,339.553517ZM292.931089,182.261472L295.920378,188.695914L296.851492,192.222372L296.886872,195.233201L296.44859,197.520881L295.213486,201.83615L284.958349,199.815369L270.759698,197.106903L269.911655,201.023968L270.070751,204.972771L270.495374,206.641563L269.942952,209.824976L271.376666,212.619178L271.507198,213.339754L270.54413,218.385303L269.49911,219.856753L274.633394,224.4916L276.758548,225.960054L278.37901,227.619541L277.519224,228.034786L276.132211,229.642548L274.28352,228.924274L252.324029,223.71416L253.830099,215.614645L246.006514,213.761259L242.987596,213.851601L237.672953,215.099825L235.666699,215.731451L232.491969,215.537401L230.194835,214.891139L229.267267,214.274954L227.460483,213.760393L226.346386,213.950304L224.813955,213.441452L221.851303,212.90513L218.569265,213.91359L216.910036,213.802051L214.701706,212.865693L211.726236,210.770504L210.468336,209.519295L210.412057,206.962185L209.052302,204.787314L205.766111,202.344976L204.710513,201.129547L202.577984,199.709855L200.121985,199.459297L198.504473,198.39543L196.779944,197.842374L192.49593,195.460792L189.660827,192.632788L189.057963,190.592728L188.238865,186.679693L187.258984,183.84347L185.307834,182.180631L181.497107,180.485995L178.175225,178.462124L175.698652,176.470122L174.205281,175.531898L172.716223,173.715119L171.521694,171.322674L169.910073,167.865584L169.783713,166.534249L170.136309,165.367632L171.494329,163.872013L173.736382,162.741952L175.645441,162.657077L177.365779,162.252295L180.599893,160.558945L212.529282,166.683281L213.781274,166.656286L216.369394,165.346175L217.153941,164.787337L217.956035,166.10356L220.553454,167.796953L222.487084,170.026144L223.860045,169.805429L224.782037,169.074693L228.121757,172.841481L231.141683,176.062251L232.125952,175.281316L233.128888,175.474384L232.93253,176.486878L237.312191,177.345219L237.668594,178.015485L237.254849,180.451018L237.624522,180.957041L239.967613,181.40788L240.596793,180.387777L242.385398,181.687956L243.208,182.779761L244.077689,183.027214L245.647449,181.779884L246.101104,180.407107L248.792348,178.862309L250.715556,179.026556L251.54486,178.020586L251.764875,176.885511L253.263019,177.16853L254.438632,176.631772L254.385257,174.739207L280.885507,179.848239ZM370.680958,331.760066L370.686967,332.382451L378.18125,333.806373L378.497339,333.503997L409.515604,339.407683L400.658533,385.679281L394.481875,384.50287L391.269575,382.189241L387.218356,403.450947L377.262936,401.547293L375.822059,409.583461L380.730006,410.580267L400.001719,414.236005L398.226021,423.655588L396.912059,430.971812L393.053132,451.455175L384.671026,495.80473L383.283028,496.321125L380.208589,494.377464L377.550333,493.00924L374.349473,491.935188L370.22264,491.61785L369.226056,491.347434L368.517876,490.550682L366.827973,489.584146L363.562798,488.47245L357.5513,487.129527L354.572035,486.828385L351.218811,487.077628L348.586336,489.586626L345.782117,491.241413L343.123686,492.503411L340.497934,492.897766L337.665472,493.018167L333.070571,492.015131L331.406177,492.548892L329.068767,492.557522L326.963671,492.134502L321.282594,490.484426L319.313745,490.303703L315.888543,490.859287L313.541326,491.843187L310.914386,493.437783L309.251487,495.924068L306.603047,498.619458L305.27167,499.680267L303.707434,500L301.779199,499.542327L301.110456,498.73324L300.452432,495.122573L300.84822,492.837384L300.777884,490.514183L300.080649,489.178921L298.799453,488.637475L296.929492,484.277044L295.941529,482.630334L293.43156,481.195837L292.835859,481.824733L291.06671,482.36542L288.648218,480.79813L289.234416,482.720453L287.835115,481.810014L286.130801,480.271339L283.270109,477.175494L281.219786,475.282587L279.993934,472.940317L279.226022,468.427111L279.310855,467.305768L278.522459,463.472397L277.307778,460.268625L276.641916,459.570735L275.80291,457.625139L276.495641,457.079166L275.797892,453.287531L275.850006,451.817357L276.427556,447.579754L277.750908,442.039336L277.647273,439.765996L277.158547,437.917455L276.531956,437.020828L275.058344,436.093736L271.708163,434.56627L270.77998,433.87478L269.612975,432.330403L268.812274,429.54258L267.1156,427.135066L266.861515,425.547756L278.728375,424.746074L283.15965,424.181104L297.835017,423.17846L306.611539,376.354419L306.670373,372.413002L305.910804,369.463662L304.118232,366.234402L302.621469,364.561052L299.513784,362.303675L297.489431,361.393861L291.413745,359.248883L287.744616,357.547599L279.078864,351.939448L275.562967,350.086261L272.269698,348.800773L272.261057,347.461604L270.741906,342.901823L271.030834,339.838219L270.678967,337.529472L271.879702,336.862215L272.465328,334.44113L272.106011,332.407759L272.405466,329.772467L272.20712,327.452344L271.431257,324.717896L270.086206,324.180884L269.230715,324.504605L267.312976,324.189435L266.087958,323.352312L264.003225,319.950412L263.207094,317.198782L264.568076,316.292715L266.010434,314.123491L267.093897,312.941221L269.313028,311.314231L270.306378,311.001904L271.841269,309.330117L272.340305,308.304176L277.090453,304.19782L279.533642,308.956525L281.553336,311.932087L283.079983,313.418936L284.877228,314.685543L286.604468,315.557027L289.097845,316.314578L297.967787,318.053611L308.451075,319.955449L326.633102,323.398917L338.285483,325.641008L350.988504,328.020415ZM169.526843,23.620379L162.942168,58.102268L162.039274,60.355613L162.192838,61.699319L163.50962,63.562835L165.449299,62.367562L166.879337,62.007793L168.577789,62.057925L181.934732,64.60607L181.138379,68.961767L179.544755,68.763616L176.151801,68.966584L173.737473,69.51716L170.337607,70.941553L167.337161,73.025521L164.376903,76.015001L161.756828,78.176706L159.161745,79.668727L157.237948,80.461615L149.818569,82.799745L146.890173,84.168444L145.662489,84.954547L142.693961,87.380556L150.40075,94.701405L161.563486,105.116214L175.854615,118.604802L179.091023,121.699011L191.044712,133.002977L194.481922,135.733741L197.319569,138.666008L208.073117,152.953039L210.028303,156.697558L212.997852,160.239699L215.227232,163.32357L216.369394,165.346175L213.781274,166.656286L212.529282,166.683281L180.599893,160.558945L177.365779,162.252295L175.645441,162.657077L173.736382,162.741952L171.494329,163.872013L170.136309,165.367632L169.783713,166.534249L169.910073,167.865584L171.521694,171.322674L170.510622,176.69203L168.572994,174.695217L165.996696,171.277901L164.205119,168.091178L163.139966,165.375289L162.177569,162.07183L162.033757,160.418625L162.460557,158.530253L158.901173,156.230647L156.431753,155.288452L152.611037,154.506309L150.786454,153.863487L148.472036,152.573176L131.238352,142.083687L128.588051,141.124775L128.865073,144.235069L129.500799,147.451923L130.06446,149.344207L129.800322,150.691714L124.960134,149.775927L124.849343,149.68991L104.794996,145.737555L104.115211,149.239143L103.119672,148.534581L101.409791,148.014L99.033517,145.48247L97.277282,145.138551L96.695404,147.49629L95.293926,146.216175L95.727093,144.01002L76.248461,140.237131L79.898727,121.59965L89.507666,123.483466L90.793409,116.88801L89.757247,116.837465L89.426898,115.883952L89.774082,114.653979L87.593577,111.880168L86.103966,110.397392L85.012938,107.859704L84.905193,105.940793L85.143552,103.522839L86.39414,100.087312L87.881599,96.862403L88.039763,95.458473L87.665137,92.758084L86.62226,90.610978L83.651436,86.919963L81.525908,85.571913L80.614844,84.074699L78.272445,82.053814L77.392065,81.75663L75.716053,79.295329L74.806392,77.230835L74.592877,74.870131L74.88424,72.735062L74.162567,68.676508L73.063253,65.759502L71.023446,62.236614L88.088659,65.634837L86.767025,66.039127L86.548226,67.160433L87.651683,68.072355L88.749336,69.83341L90.173387,71.1136L91.206505,75.801058L91.855742,77.221062L90.534967,79.233945L90.911606,80.220483L92.821034,80.705981L93.302797,84.25419L94.6239,85.804218L97.007996,86.26773L97.048125,86.72193L95.264794,95.876891L94.322385,100.055783L99.794077,101.116905L98.807701,106.187335L102.953083,106.990629L104.45563,99.275511L105.000886,100.75649L105.980513,101.696705L107.911131,102.092999L110.305991,101.78586L112.287048,102.594753L112.939153,101.306936L110.834306,100.203367L108.014372,100.458182L108.928965,95.741125L105.27862,95.028695L105.964203,91.502088L115.510705,93.361892L116.187567,90.212575L123.364737,53.199367L142.85426,56.948453L144.573376,47.737264L146.41918,38.538168L150.031619,19.923889L162.57987,22.359561ZM232.667988,89.704281L226.881906,90.982124L221.275215,91.904521L217.559625,92.065929L214.911677,91.724516L210.62001,90.552832L201.66118,88.828822L200.1287,88.8547L197.408903,89.441864L198.254055,91.878678L199.01984,94.885636L199.225736,96.546066L199.169072,98.880118L198.477015,101.732589L197.655955,103.643919L195.734969,106.466792L190.371925,111.468796L186.610076,114.297287L182.773328,117.54467L180.609681,120.181961L179.091023,121.699011L175.854615,118.604802L161.563486,105.116214L150.40075,94.701405L142.693961,87.380556L145.662489,84.954547L146.890173,84.168444L149.818569,82.799745L157.237948,80.461615L159.161745,79.668727L161.756828,78.176706L164.376903,76.015001L167.337161,73.025521L170.337607,70.941553L173.737473,69.51716L176.151801,68.966584L179.544755,68.763616L181.138379,68.961767L181.934732,64.60607L168.577789,62.057925L166.879337,62.007793L165.449299,62.367562L163.50962,63.562835L162.192838,61.699319L162.039274,60.355613L162.942168,58.102268L169.526843,23.620379L171.210868,14.466931L173.051619,5.260172L209.221446,12.325536L209.025606,13.337704L211.813548,13.924081L211.959085,12.862097L222.137965,14.802979L221.918574,15.955702L231.307765,17.742163L231.530853,16.594481L241.399706,18.44798L244.960461,0L254.589239,1.804709L274.238994,5.552716L267.171104,42.198384L266.900823,43.754438L266.690771,47.044947L266.767112,54.754099L263.764968,55.281937L261.776059,55.922964L258.799917,57.395291L256.472822,59.099472L254.732713,60.834309L251.495247,65.261882L249.619685,67.545207L247.085782,69.931403L243.849571,72.194858L241.346106,73.499458L237.772306,74.825454L235.446861,75.394115L232.275526,75.831298L227.94254,75.830313L224.441116,75.327535L220.839437,74.522685L221.694243,78.114862L222.550984,79.780728L224.156634,81.834483L225.46297,82.998765L230.190459,86.645812L232.067977,88.676923ZM295.213486,201.83615L294.581902,204.437268L294.725399,207.089496L295.647028,210.751955L297.742265,216.880347L298.356912,220.235139L298.600578,227.254132L300.668798,227.89893L301.989648,228.699149L305.201223,231.31715L307.389092,232.666175L308.817052,233.24787L311.408588,233.783966L313.549845,233.733784L316.062399,233.092711L317.209437,232.553252L323.090344,229.252105L324.889106,228.536014L327.493963,228.065252L334.910354,228.255123L337.290103,228.576013L349.395169,230.826812L354.586593,230.529115L356.27957,231.129676L358.355861,232.832317L359.85696,233.455336L368.778904,235.163314L367.688089,241.308794L382.158995,231.924778L384.595085,219.095102L391.928956,220.497427L390.179578,229.66694L399.810791,231.49837L399.838194,231.355011L408.679932,233.036871L409.09202,232.901544L419.395188,234.858792L419.32839,235.208351L428.976554,237.041466L418.376121,292.657122L379.560867,285.282775L370.680958,331.760066L350.988504,328.020415L338.285483,325.641008L326.633102,323.398917L308.451075,319.955449L297.967787,318.053611L289.097845,316.314578L286.604468,315.557027L284.877228,314.685543L283.079983,313.418936L281.553336,311.932087L279.533642,308.956525L277.090453,304.19782L277.005361,304.032412L268.314852,302.302754L265.370724,301.788572L263.408914,301.247333L260.315521,300.91151L258.864347,301.167389L257.636128,302.146151L256.966032,303.696515L256.399418,306.626546L255.370697,307.875606L250.814527,308.812754L249.90266,308.759862L236.365308,306.161329L237.37066,301.103574L241.980479,276.955249L242.379058,276.082202L246.692011,269.565616L251.323594,260.856011L252.076998,259.580799L257.080944,252.732065L258.149545,249.867665L258.477027,244.895642L259.698536,238.783981L261.109852,240.482583L263.273624,242.640345L264.424144,244.638788L265.794498,244.960704L266.954648,243.782554L268.210741,241.7679L268.369218,238.632867L268.795772,237.080456L269.612437,235.449662L271.26995,233.772235L273.368121,232.545237L275.078587,231.218308L276.132211,229.642548L277.519224,228.034786L278.37901,227.619541L276.758548,225.960054L274.633394,224.4916L269.49911,219.856753L270.54413,218.385303L271.507198,213.339754L271.376666,212.619178L269.942952,209.824976L270.495374,206.641563L270.070751,204.972771L269.911655,201.023968L270.759698,197.106903L284.958349,199.815369ZM342.783497,66.612639L343.523934,66.920396L342.615064,71.38422L341.349383,75.902912L340.947754,77.925496L339.385265,80.696899L337.720359,82.574208L335.794075,84.049723L317.099885,96.638965L313.05104,99.737144L310.557851,102.08127L297.735993,114.631251L295.768443,117.088625L294.575389,119.652249L294.025227,121.866558L293.625713,124.617473L292.011908,124.308075L291.981118,123.662382L289.791534,121.834483L288.346713,119.88385L285.377434,116.559203L283.888459,115.526154L280.449323,113.550439L275.313553,109.54738L273.97398,108.32255L270.655932,104.852301L267.012888,102.143302L262.715651,98.395886L260.571787,95.909605L259.12295,93.197597L254.20713,93.868244L252.102699,93.787466L249.14818,92.875336L242.287024,89.56517L240.18087,88.888531L238.103615,88.676021L235.573933,89.012246L232.667988,89.704281L232.067977,88.676923L230.190459,86.645812L225.46297,82.998765L224.156634,81.834483L222.550984,79.780728L221.694243,78.114862L220.839437,74.522685L224.441116,75.327535L227.94254,75.830313L232.275526,75.831298L235.446861,75.394115L237.772306,74.825454L241.346106,73.499458L243.849571,72.194858L247.085782,69.931403L249.619685,67.545207L251.495247,65.261882L254.732713,60.834309L256.472822,59.099472L258.799917,57.395291L261.776059,55.922964L263.764968,55.281937L266.767112,54.754099L266.690771,47.044947L266.900823,43.754438L267.171104,42.198384L274.238994,5.552716L293.839026,9.253713L293.827625,9.313121L313.036573,12.943792L342.317437,18.523904L340.571371,27.686544L349.461377,29.385008L343.231635,61.880984L343.571304,61.945409ZM272.269698,348.800773L275.562967,350.086261L279.078864,351.939448L287.744616,357.547599L291.413745,359.248883L297.489431,361.393861L299.513784,362.303675L302.621469,364.561052L304.118232,366.234402L305.910804,369.463662L306.670373,372.413002L306.611539,376.354419L297.835017,423.17846L283.15965,424.181104L278.728375,424.746074L266.861515,425.547756L267.1156,427.135066L268.812274,429.54258L269.612975,432.330403L270.77998,433.87478L271.708163,434.56627L275.058344,436.093736L276.531956,437.020828L277.158547,437.917455L277.647273,439.765996L277.750908,442.039336L276.427556,447.579754L275.850006,451.817357L275.797892,453.287531L276.495641,457.079166L275.80291,457.625139L276.641916,459.570735L277.307778,460.268625L278.522459,463.472397L279.310855,467.305768L279.226022,468.427111L279.993934,472.940317L281.219786,475.282587L283.270109,477.175494L286.130801,480.271339L287.835115,481.810014L289.234416,482.720453L288.524363,484.089729L288.73646,484.651238L286.574691,489.326916L265.905711,485.477583L262.893244,484.813166L244.708532,481.253554L236.229558,453.97353L233.430054,440.233308L228.083156,413.152521L226.279857,404.64172L222.042561,383.731648L221.85617,381.163378L222.130702,378.401973L223.634889,374.319407L227.029147,368.129631L227.631682,366.07542L228.008876,363.801151L228.822641,349.878223L229.61001,343.377492L232.318759,343.888166L235.752936,345.133095L241.013125,348.173529L243.578437,349.048164L261.944881,352.587529L263.282118,352.472326L266.650833,351.653123L267.408561,351.156514L268.998406,348.459437L269.618164,348.039143ZM170.510622,176.69203L173.265961,179.083882L174.780378,180.64097L176.464516,183.196656L177.360103,185.155748L177.968076,187.78998L177.946896,190.912797L176.47058,198.196922L176.975665,198.664499L185.215717,204.700439L184.768038,207.491704L182.904592,217.098088L182.459306,218.68906L191.037095,220.378813L192.157945,220.708335L190.393129,229.84164L190.36508,230.49983L187.980093,242.640124L185.164027,257.273746L184.947991,257.81095L145.844147,250.170202L126.313327,246.370358L106.799946,242.531287L110.4853,223.869932L112.26662,214.674234L113.971024,205.502911L114.091807,205.223132L117.657873,186.778084L117.616573,186.660444L121.175474,168.335243L123.071719,158.871012L123.249636,158.741091L124.960134,149.775927L129.800322,150.691714L130.06446,149.344207L129.500799,147.451923L128.865073,144.235069L128.588051,141.124775L131.238352,142.083687L148.472036,152.573176L150.786454,153.863487L152.611037,154.506309L156.431753,155.288452L158.901173,156.230647L162.460557,158.530253L162.033757,160.418625L162.177569,162.07183L163.139966,165.375289L164.205119,168.091178L165.996696,171.277901L168.572994,174.695217Z"></path>
</svg>
